<svg width="82" height="14" viewBox="0 0 82 14" fill="none" xmlns="http://www.w3.org/2000/svg">
<path d="M81.0889 13.1914C80.8311 13.6875 80.3193 14 79.7569 14H64.6869C63.8588 14 63.1869 13.3281 63.1869 12.5C63.1869 11.6719 63.8588 11 64.6869 11H74.2611C33.3351 -6.93 2.60507 11.5508 2.28807 11.7461C1.58495 12.1797 0.659173 11.9648 0.225573 11.2617C-0.211927 10.5586 0.00682271 9.63281 0.709953 9.19921C0.932613 9.06249 15.624 0.187511 38.222 0.187511C48.863 0.187511 61.261 2.16411 74.722 7.93751L70.9993 2.64061C70.5227 1.96092 70.6868 1.02731 71.3625 0.550812C71.6243 0.367222 71.925 0.27737 72.2219 0.27737C72.6946 0.27737 73.1594 0.50003 73.4524 0.914089L80.9876 11.6411C81.3079 12.0942 81.3506 12.6953 81.0889 13.1914Z" fill="#EDC900"/>
</svg>
