<svg width="22" height="23" viewBox="0 0 22 23" fill="none" xmlns="http://www.w3.org/2000/svg">
<path fill-rule="evenodd" clip-rule="evenodd" d="M10.991 1.94918C10.4426 1.84544 9.87686 1.79165 9.29958 1.79165C8.63492 1.79165 7.98559 1.86369 7.36128 1.99912C7.34879 1.96647 7.3315 1.93477 7.30941 1.90595L6.63321 1.01652C5.77259 -0.114973 4.15709 -0.335881 3.0255 0.525696C2.38387 1.01268 1.65773 1.56498 1.01611 2.05194C-0.115383 2.91256 -0.335332 4.52806 0.525285 5.66063C0.896998 6.14858 1.20053 6.55007 1.20053 6.55007C1.21685 6.5712 1.2351 6.58945 1.25431 6.60577C0.562747 7.89191 0.169887 9.36049 0.169887 10.9214C0.169887 13.8384 1.54053 16.4377 3.67186 18.1088L2.49621 20.0682C2.38767 20.2498 2.4453 20.4861 2.6278 20.5946C2.8103 20.7041 3.04562 20.6455 3.15511 20.464L4.29811 18.5583C5.73505 19.5025 7.45338 20.0509 9.29953 20.0509C10.5213 20.0509 11.6893 19.8108 12.7555 19.3728C12.9889 19.9174 13.3289 20.4275 13.7737 20.8712C15.6543 22.7529 18.7087 22.7529 20.5895 20.8712C22.4702 18.9906 22.4702 15.9372 20.5895 14.0554C19.92 13.3869 19.1026 12.9556 18.243 12.7625C18.3649 12.168 18.4283 11.5523 18.4283 10.9212C18.4283 9.27972 17.9942 7.73917 17.2354 6.40792L17.803 5.66063C18.6637 4.52818 18.4437 2.91256 17.3122 2.05194C16.6706 1.56495 15.9454 1.01266 15.3038 0.525698C14.1713 -0.335878 12.5557 -0.11497 11.6951 1.01652C11.3243 1.50542 11.0189 1.90596 11.0189 1.90596C11.0093 1.9194 10.9997 1.93381 10.991 1.94918ZM14.3172 14.599C15.8972 13.018 18.4646 13.018 20.0457 14.599C21.6267 16.18 21.6267 18.7474 20.0457 20.3285C18.4647 21.9095 15.8973 21.9095 14.3172 20.3285C12.7352 18.7475 12.7352 16.1801 14.3172 14.599ZM17.4801 12.654C17.5982 12.095 17.6597 11.5158 17.6597 10.9212C17.6597 6.30683 13.9138 2.55995 9.29943 2.55995C4.68504 2.55995 0.938163 6.30683 0.938163 10.9212C0.938163 15.5356 4.68504 19.2825 9.29943 19.2825C10.4357 19.2825 11.5201 19.0548 12.5076 18.6437C12.4038 18.2269 12.3548 17.7985 12.3635 17.371C11.4347 17.8138 10.3954 18.0617 9.29944 18.0617C5.35855 18.0617 2.15902 14.8621 2.15902 10.9212C2.15902 6.98133 5.35855 3.7818 9.29944 3.7818C13.2403 3.7818 16.4389 6.98133 16.4389 10.9212C16.4389 11.5513 16.3572 12.1622 16.2036 12.7453C16.6242 12.6578 17.0536 12.628 17.4801 12.654ZM14.9415 17.6746L16.316 19.05C16.4658 19.1999 16.7098 19.1999 16.8596 19.05L19.2676 16.642C19.4175 16.4912 19.4175 16.2492 19.2676 16.0984C19.1178 15.9485 18.8738 15.9485 18.724 16.0984L16.5878 18.2346L15.4852 17.1319C15.3353 16.9821 15.0913 16.9821 14.9415 17.1319C14.7917 17.2817 14.7917 17.5248 14.9415 17.6746ZM15.3171 13.0179C15.5466 12.3609 15.6705 11.6559 15.6705 10.9211C15.6705 7.40463 12.816 4.55009 9.29951 4.55009C5.78303 4.55009 2.9275 7.40463 2.9275 10.9211C2.9275 14.4386 5.78303 17.2931 9.29951 17.2931C10.4531 17.2931 11.5356 16.9858 12.4703 16.4488C12.6576 15.5709 13.0917 14.7363 13.7737 14.0552C14.2299 13.599 14.7552 13.2532 15.3171 13.0179ZM13.3298 11.41H9.68371V6.548C9.68371 6.33669 9.51082 6.16379 9.29951 6.16379C9.08724 6.16379 8.91531 6.33669 8.91531 6.548V11.7943C8.91531 12.0066 9.08724 12.1785 9.29951 12.1785H13.3299C13.5412 12.1785 13.7141 12.0066 13.7141 11.7943C13.7141 11.582 13.5411 11.41 13.3298 11.41ZM6.5727 2.20631L6.02233 1.48113C5.41817 0.687735 4.28477 0.533094 3.49039 1.13727C2.84877 1.62426 2.12263 2.17559 1.48196 2.66352C0.687608 3.26671 0.532967 4.40012 1.13714 5.19545L1.67407 5.90239C2.82093 4.16387 4.54509 2.84021 6.5727 2.20631ZM16.7973 5.71418L17.1911 5.1955C17.7953 4.40019 17.6407 3.26678 16.8463 2.66356C16.2057 2.17562 15.4795 1.62428 14.8389 1.13732C14.0445 0.533168 12.9111 0.687809 12.3069 1.48117L11.8055 2.14105C13.8543 2.72504 15.6092 4.00839 16.7973 5.71418Z" fill="#007763"/>
</svg>
