<svg width="20" height="20" viewBox="0 0 22 19" fill="none" xmlns="http://www.w3.org/2000/svg">
<path fill-rule="evenodd" clip-rule="evenodd" d="M5.5 0.558824C5.5 0.250185 5.25377 0 4.95 0C4.64623 0 4.4 0.250185 4.4 0.558824V1.11765H2.2C0.984967 1.11765 0 2.11842 0 3.35294V14.5294C0 15.7639 0.984967 16.7647 2.2 16.7647H12.9336C13.8215 18.1126 15.3338 19 17.05 19C19.7838 19 22 16.7483 22 13.9706C22 12.2268 21.1266 10.6903 19.8 9.7881V3.35294C19.8 2.11842 18.815 1.11765 17.6 1.11765H15.4V0.558824C15.4 0.250185 15.1538 0 14.85 0C14.5462 0 14.3 0.250185 14.3 0.558824V1.11765H5.5V0.558824ZM19.8 11.2329C19.4842 10.9055 19.1123 10.6343 18.7 10.4353C18.1999 10.1939 17.6405 10.0588 17.05 10.0588C14.9237 10.0588 13.2 11.8102 13.2 13.9706C13.2 14.5705 13.3329 15.1389 13.5705 15.6471C13.7664 16.066 14.0333 16.4439 14.3555 16.7647C15.05 17.4561 16.001 17.8824 17.05 17.8824C19.1763 17.8824 20.9 16.131 20.9 13.9706C20.9 12.9047 20.4805 11.9385 19.8 11.2329ZM12.3817 15.6471C12.1992 15.1227 12.1 14.5584 12.1 13.9706C12.1 11.1929 14.3162 8.94118 17.05 8.94118C17.6285 8.94118 18.1839 9.04202 18.7 9.22735V3.35294C18.7 2.73569 18.2075 2.23529 17.6 2.23529H15.4V2.79412C15.4 3.10276 15.1538 3.35294 14.85 3.35294C14.5462 3.35294 14.3 3.10276 14.3 2.79412V2.23529H5.5V2.79412C5.5 3.10276 5.25377 3.35294 4.95 3.35294C4.64623 3.35294 4.4 3.10276 4.4 2.79412V2.23529H2.2C1.5925 2.23529 1.1 2.73569 1.1 3.35294V14.5294C1.1 15.1467 1.5925 15.6471 2.2 15.6471H12.3817ZM3.85 7.82353C3.54624 7.82353 3.3 7.57334 3.3 7.26471C3.3 6.95607 3.54624 6.70588 3.85 6.70588H12.65C12.9538 6.70588 13.2 6.95607 13.2 7.26471C13.2 7.57334 12.9538 7.82353 12.65 7.82353H3.85ZM3.3 10.6176C3.3 10.9263 3.54624 11.1765 3.85 11.1765H9.35C9.65376 11.1765 9.9 10.9263 9.9 10.6176C9.9 10.309 9.65376 10.0588 9.35 10.0588H3.85C3.54624 10.0588 3.3 10.309 3.3 10.6176ZM16.5 11.7353C16.5 11.4267 16.7463 11.1765 17.05 11.1765C17.3537 11.1765 17.6 11.4267 17.6 11.7353V13.4118H19.25C19.5537 13.4118 19.8 13.662 19.8 13.9706C19.8 14.2792 19.5537 14.5294 19.25 14.5294H17.05C16.7463 14.5294 16.5 14.2792 16.5 13.9706V11.7353Z" fill="#007763"/>
</svg>
