<svg width="24" height="18" viewBox="0 0 24 18" fill="none" xmlns="http://www.w3.org/2000/svg">
<path d="M23.9131 10.1374C23.7331 7.86431 23.4365 7.42162 23.3245 7.25512C23.067 6.87037 22.6549 6.61894 22.2188 6.35512C22.1942 6.34046 22.1729 6.31955 22.1566 6.29404C22.1404 6.26853 22.1297 6.23913 22.1252 6.20814C22.1208 6.17716 22.1229 6.14545 22.1312 6.11551C22.1396 6.08557 22.154 6.05822 22.1733 6.03562C22.2541 5.9435 22.3162 5.83281 22.3553 5.71114C22.3944 5.58947 22.4096 5.45972 22.3999 5.33081C22.3811 5.10222 22.2866 4.88992 22.1351 4.73603C21.9837 4.58214 21.7863 4.49789 21.5823 4.5H20.8021C20.7687 4.50022 20.7353 4.50267 20.7021 4.50731C20.6794 4.4962 20.6558 4.48735 20.6316 4.48088C20.1695 3.38231 19.537 1.87819 18.2258 1.14412C16.281 0.0562498 12.6984 0 11.9983 0C11.2982 0 7.71571 0.0562499 5.77343 1.14244C4.46223 1.8765 3.82964 3.38063 3.36757 4.47919L3.36357 4.48819C3.34053 4.49183 3.31789 4.49825 3.29606 4.50731C3.26288 4.50267 3.22948 4.50022 3.19605 4.5H2.41443C2.21035 4.49789 2.01301 4.58214 1.86157 4.73603C1.71012 4.88992 1.61562 5.10222 1.59681 5.33081C1.58793 5.45942 1.60384 5.58868 1.64345 5.70974C1.68307 5.8308 1.74545 5.94081 1.82635 6.03225C1.8457 6.05485 1.86012 6.0822 1.86846 6.11214C1.87681 6.14207 1.87886 6.17379 1.87445 6.20477C1.87004 6.23575 1.85928 6.26516 1.84304 6.29066C1.82679 6.31617 1.8055 6.33708 1.78084 6.35175C1.34478 6.61725 0.930714 6.86869 0.675177 7.25175C0.56316 7.4205 0.267117 7.86094 0.08659 10.134C-0.0134247 11.4131 -0.0284269 12.7373 0.0500847 13.59C0.214609 15.3619 0.523154 16.4329 0.536156 16.4773C0.583502 16.639 0.670656 16.7823 0.787498 16.8905C0.90434 16.9988 1.04608 17.0675 1.19625 17.0887V17.1C1.19625 17.3387 1.28055 17.5676 1.4306 17.7364C1.58065 17.9052 1.78417 18 1.99637 18H4.79678C5.00899 18 5.2125 17.9052 5.36255 17.7364C5.5126 17.5676 5.5969 17.3387 5.5969 17.1C6.02746 17.1 6.32701 17.0134 6.64456 16.9211C7.10301 16.7822 7.57163 16.6897 8.04476 16.6449C9.57049 16.4812 11.0877 16.425 11.9983 16.425C12.8905 16.425 14.4747 16.4812 16.0029 16.6449C16.4779 16.6898 16.9484 16.7826 17.4086 16.9222C17.7127 17.01 18.0012 17.091 18.4008 17.0994C18.4008 17.3381 18.4851 17.5671 18.6351 17.7358C18.7852 17.9046 18.9887 17.9994 19.2009 17.9994H22.0013C22.2135 17.9994 22.417 17.9046 22.5671 17.7358C22.7171 17.5671 22.8014 17.3381 22.8014 17.0994V17.0927C22.952 17.0718 23.0941 17.0033 23.2114 16.895C23.3286 16.7868 23.416 16.6433 23.4635 16.4812C23.4765 16.4368 23.7851 15.3658 23.9496 13.5939C24.0281 12.7406 24.0141 11.4187 23.9131 10.1374ZM4.81379 5.24869C5.21384 4.29244 5.67141 3.21019 6.48603 2.754C7.66321 2.09475 10.1031 1.79775 11.9983 1.79775C13.8936 1.79775 16.3335 2.0925 17.5107 2.754C18.3253 3.21019 18.7808 4.293 19.1829 5.24869L19.2329 5.37075C19.2621 5.44024 19.2751 5.517 19.2705 5.5937C19.2658 5.67041 19.2438 5.7445 19.2065 5.80892C19.1692 5.87333 19.1178 5.92593 19.0573 5.96167C18.9968 5.99742 18.9292 6.01513 18.8609 6.01312C17.1991 5.9625 13.6986 5.8005 11.9983 5.8005C10.2981 5.8005 6.79758 5.96644 5.13333 6.01706C5.06501 6.01907 4.99736 6.00136 4.93685 5.96561C4.87634 5.92986 4.82498 5.87727 4.78767 5.81286C4.75037 5.74844 4.72835 5.67434 4.72373 5.59764C4.71911 5.52093 4.73204 5.44418 4.76128 5.37469C4.77878 5.33306 4.79728 5.29087 4.81379 5.24869ZM5.41037 9.72787C4.55015 9.84433 3.68442 9.90181 2.81799 9.9C2.28791 9.9 1.74133 9.73125 1.63982 9.20025C1.57031 8.84306 1.57781 8.64225 1.61531 8.44031C1.64682 8.26875 1.69683 8.14388 1.94686 8.1C2.59696 7.9875 2.96051 8.12869 4.02467 8.48137C4.73027 8.71481 5.23935 9.02587 5.52939 9.27225C5.67491 9.39375 5.5974 9.711 5.41037 9.72787ZM16.481 14.3404C15.8229 14.4247 14.5067 14.3938 12.0133 14.3938C9.51998 14.3938 8.20428 14.4247 7.54619 14.3404C6.86709 14.2554 6.00146 13.5332 6.59255 12.8897C6.9861 12.4656 7.90424 12.1483 9.12692 11.97C10.3496 11.7917 10.8672 11.7 12.0083 11.7C13.1495 11.7 13.6146 11.7562 14.8898 11.9706C16.165 12.1849 17.1286 12.5061 17.4241 12.8903C17.9632 13.5787 17.1596 14.2509 16.481 14.3438V14.3404ZM22.3569 9.19969C22.2569 9.73294 21.7068 9.89944 21.1787 9.89944C20.2957 9.89967 19.4134 9.8422 18.5363 9.72731C18.3833 9.711 18.3123 9.40894 18.4673 9.27169C18.7528 9.01912 19.2674 8.71425 19.972 8.48081C21.0362 8.12813 21.6498 7.98694 22.1768 8.1045C22.3054 8.13319 22.3734 8.28844 22.3814 8.38575C22.4166 8.65671 22.4083 8.93259 22.3569 9.20025V9.19969Z" fill="#007763"/>
</svg>
