<svg width="20" height="33" viewBox="0 0 20 33" fill="none" xmlns="http://www.w3.org/2000/svg">
<path fill-rule="evenodd" clip-rule="evenodd" d="M5.34609 9.29023C4.61151 8.5492 4.17516 7.57451 4.17516 6.41393C4.17516 5.731 4.17774 5.02098 4.30555 4.36386C4.41916 3.78292 4.63217 3.2433 5.06595 2.83147C5.44548 2.4713 5.98901 2.21309 6.75327 2.08271C7.16638 2.01171 7.46458 1.84646 7.77055 1.65023C8.28952 1.31587 8.85109 0.894992 10.6236 1.07832C13.8046 1.40751 15.8222 3.54021 15.8222 6.41409C15.8222 7.57468 15.3859 8.54936 14.6513 9.29039C14.4512 9.49307 14.4525 9.81971 14.6539 10.0211C14.8566 10.2212 15.1832 10.2199 15.3846 10.0185C16.3051 9.09027 16.8537 7.8703 16.8537 6.41548C16.8537 3.00845 14.5002 0.443504 10.7281 0.0522023C8.83804 -0.142735 8.06089 0.244558 7.46961 0.615062C7.17398 0.799671 6.94935 1.00236 6.57626 1.06562C5.56413 1.23861 4.85539 1.60654 4.35318 2.08291C3.22227 3.15571 3.13965 4.84303 3.13965 6.41531C3.13965 7.87023 3.68962 9.09024 4.60878 10.0183C4.80888 10.221 5.13681 10.2223 5.33946 10.0209C5.54215 9.82081 5.54344 9.49288 5.34205 9.29023H5.34609Z" fill="white"/>
<path fill-rule="evenodd" clip-rule="evenodd" d="M7.07395 14.9815V17.8669C7.07395 18.1625 6.95647 18.444 6.74862 18.6531C6.56014 18.8416 6.31227 18.9552 6.0489 18.9745C5.76488 18.9965 5.55188 19.2456 5.57382 19.5297C5.59577 19.8137 5.84493 20.0267 6.12895 20.0035C6.63632 19.9634 7.11526 19.744 7.47801 19.3825C7.87949 18.981 8.10542 18.4349 8.10542 17.8656V14.9803C8.10542 14.695 7.87433 14.4639 7.58902 14.4639C7.30372 14.4639 7.07263 14.695 7.07263 14.9803L7.07395 14.9815ZM13.8979 18.9692C13.6552 18.9383 13.428 18.8272 13.2537 18.6529C13.0446 18.4438 12.9284 18.1611 12.9284 17.8667V14.9814C12.9284 14.6961 12.6973 14.465 12.412 14.465C12.1267 14.465 11.8956 14.6961 11.8956 14.9814V17.8667C11.8956 18.4361 12.1215 18.9809 12.523 19.3836C12.86 19.7206 13.2989 19.9349 13.7662 19.9943C14.049 20.0304 14.3084 19.8303 14.3446 19.5476C14.3807 19.2648 14.1807 19.0054 13.8979 18.9692Z" fill="white"/>
<path fill-rule="evenodd" clip-rule="evenodd" d="M14.2937 18.9795H14.0381C13.2997 18.9795 12.7472 19.2532 12.2114 19.5966C11.602 19.9878 11.0224 20.5003 9.99994 20.5003C9.18403 20.5003 8.73479 20.1608 8.28166 19.8367C7.6723 19.4017 7.05652 18.9808 5.96177 18.9808H5.70874H5.70616C4.19314 18.9808 2.74076 19.5824 1.67053 20.6526C0.600304 21.7229 0 23.1739 0 24.6869V32.1888C0 32.4741 0.231086 32.7052 0.516392 32.7052H19.4836C19.7689 32.7052 20 32.4741 20 32.1888V24.6869C20 23.1739 19.3984 21.7215 18.3295 20.6526C17.2592 19.5824 15.8082 18.9808 14.2938 18.9808L14.2937 18.9795ZM5.70625 20.0123H5.96187C6.77778 20.0123 7.22702 20.3518 7.68016 20.6758C8.28951 21.1109 8.90529 21.5317 10 21.5317C11.0806 21.5317 11.7829 21.1161 12.4335 20.6861C12.9254 20.3621 13.3695 20.0122 14.0395 20.0122H14.2951C15.5345 20.0122 16.7235 20.5041 17.6001 21.3807C18.4766 22.2572 18.9685 23.4462 18.9685 24.6856V31.6712H1.03406V24.6856C1.03406 23.4462 1.52593 22.2572 2.40249 21.3807C3.27905 20.5041 4.46677 20.0122 5.7074 20.0122L5.70625 20.0123Z" fill="white"/>
<path fill-rule="evenodd" clip-rule="evenodd" d="M15.5367 5.99849C15.5367 5.85519 15.4774 5.71834 15.3728 5.62024C15.2682 5.52342 15.1275 5.47307 14.9842 5.4834C11.9129 5.70415 9.35825 5.17614 7.29367 3.91743C7.16329 3.83739 7.00449 3.82061 6.85991 3.86837C6.71532 3.91743 6.59913 4.02716 6.54361 4.16917C6.25831 4.89599 5.63348 5.28071 4.84211 5.50145C4.61878 5.56342 4.46387 5.76739 4.46387 5.99847V11.5666C4.46387 12.864 5.17132 14.0595 6.30996 14.683C6.94642 15.0316 7.67581 15.7881 8.29935 16.1302C9.35923 16.7111 10.6425 16.7111 11.7037 16.1302C12.3273 15.7881 13.0567 15.0329 13.6931 14.683C14.8318 14.0595 15.5392 12.864 15.5392 11.5666V5.99847L15.5367 5.99849ZM14.504 6.54585V11.5663C14.504 12.4868 14.0018 13.335 13.1949 13.7778C12.5585 14.1264 11.8291 14.8829 11.2055 15.225C10.4542 15.6368 9.54534 15.6368 8.79397 15.225C8.17043 14.8828 7.441 14.1276 6.80458 13.7778C5.99772 13.335 5.49553 12.4881 5.49553 11.5663V6.37531C6.24043 6.10808 6.83944 5.69239 7.23448 5.074C9.24582 6.16618 11.6614 6.67094 14.5026 6.54443L14.504 6.54585Z" fill="white"/>
<path fill-rule="evenodd" clip-rule="evenodd" d="M7.40723 8.43338V9.00011C7.40723 9.28542 7.63831 9.5165 7.92362 9.5165C8.20893 9.5165 8.44001 9.28542 8.44001 9.00011V8.43338C8.44001 8.14808 8.20893 7.91699 7.92362 7.91699C7.63831 7.91699 7.40723 8.14808 7.40723 8.43338Z" fill="white"/>
<path fill-rule="evenodd" clip-rule="evenodd" d="M11.5596 8.43338V9.00011C11.5596 9.28542 11.7907 9.5165 12.076 9.5165C12.3613 9.5165 12.5924 9.28542 12.5924 9.00011V8.43338C12.5924 8.14808 12.3613 7.91699 12.076 7.91699C11.7907 7.91699 11.5596 8.14808 11.5596 8.43338Z" fill="white"/>
<path fill-rule="evenodd" clip-rule="evenodd" d="M7.87392 12.8246C9.28495 13.7696 10.696 13.6908 12.1059 12.8375C12.3499 12.6903 12.4273 12.3714 12.2801 12.1287C12.133 11.8847 11.8154 11.8073 11.5714 11.9545C10.5309 12.5844 9.48904 12.6645 8.44852 11.9674C8.21227 11.8086 7.89082 11.8718 7.73202 12.1094C7.57323 12.3456 7.63649 12.6671 7.87403 12.8259L7.87392 12.8246Z" fill="white"/>
<path fill-rule="evenodd" clip-rule="evenodd" d="M13.9389 28.7655L12.3626 30.3418C11.8062 30.8995 11.5454 31.5166 11.4641 32.1169C11.4254 32.3996 11.6229 32.6604 11.9056 32.6991C12.1883 32.7379 12.4491 32.5403 12.4878 32.2576C12.5434 31.8561 12.7215 31.4443 13.0933 31.0725L14.6696 29.4962C14.871 29.2949 14.871 28.9669 14.6696 28.7656C14.4682 28.5642 14.1403 28.5641 13.9389 28.7655ZM8.49475 32.126C8.42116 31.5102 8.172 30.8892 7.63107 30.3483C7.16373 29.8822 6.51953 29.2316 6.06124 28.7707C5.86114 28.568 5.53321 28.5667 5.33056 28.7681C5.12787 28.9682 5.12658 29.2962 5.32798 29.4988C5.78756 29.9623 6.43307 30.6129 6.90168 31.0803C7.25669 31.4366 7.42193 31.8458 7.46972 32.2499C7.50329 32.5326 7.76148 32.7354 8.04422 32.7018C8.32694 32.6682 8.52964 32.4113 8.49606 32.1273L8.49475 32.126ZM7.55879 29.3826L8.63934 30.4632C8.79425 30.6181 9.02922 30.6581 9.22672 30.5639C9.46038 30.4515 9.72245 30.3896 9.99871 30.3896C10.275 30.3896 10.537 30.4515 10.7707 30.5639C10.9682 30.6581 11.2032 30.6181 11.3581 30.4632L13.5089 28.3124C13.7102 28.111 13.7102 27.7831 13.5089 27.5817C13.3075 27.3803 12.9795 27.3803 12.7782 27.5817L10.8675 29.4923C10.5939 29.4033 10.3021 29.3555 9.99871 29.3555C9.69533 29.3555 9.40356 29.4033 9.12859 29.4923L8.28816 28.6506C8.08676 28.4492 7.75884 28.4492 7.55747 28.6506C7.35611 28.852 7.35608 29.1799 7.55747 29.3813L7.55879 29.3826Z" fill="white"/>
<path fill-rule="evenodd" clip-rule="evenodd" d="M6.20871 26.3626C7.29959 25.6513 8.60219 25.2369 10.0004 25.2369C13.8358 25.2369 16.951 28.352 16.951 32.1874C16.951 32.4728 17.1821 32.7038 17.4674 32.7038C17.7527 32.7038 17.9838 32.4728 17.9838 32.1874C17.9838 27.7813 14.4065 24.2041 10.0004 24.2041C8.39316 24.2041 6.89692 24.6792 5.64456 25.4977C5.40573 25.6539 5.3386 25.974 5.49352 26.2129C5.64972 26.4517 5.96986 26.5188 6.20871 26.3626ZM3.04968 32.1875C3.04968 30.4318 3.70164 28.8271 4.77702 27.6033C4.9655 27.389 4.94356 27.0624 4.72925 26.8739C4.51495 26.6854 4.18834 26.7073 3.99986 26.9216C2.76439 28.3275 2.01562 30.171 2.01562 32.1877C2.01562 32.473 2.24671 32.7041 2.53202 32.7041C2.81732 32.7041 3.04841 32.473 3.04841 32.1877L3.04968 32.1875ZM15.7954 32.1875C15.7954 28.9885 13.1992 26.3923 10.0002 26.3923C6.80125 26.3923 4.20507 28.9885 4.20507 32.1875C4.20507 32.4728 4.43616 32.7039 4.72147 32.7039C5.00677 32.7039 5.23786 32.4728 5.23786 32.1875C5.23786 29.5591 7.37184 27.4251 10.0002 27.4251C12.6286 27.4251 14.7626 29.5591 14.7626 32.1875C14.7626 32.4728 14.9937 32.7039 15.279 32.7039C15.5643 32.7039 15.7954 32.4728 15.7954 32.1875Z" fill="white"/>
</svg>
