<svg width="20" height="20" viewBox="0 0 20 20" fill="none" xmlns="http://www.w3.org/2000/svg">
<path d="M19.3488 8.88856L10.7853 0.325016C10.5687 0.108348 10.2843 0 9.99993 0C9.71556 0 9.43118 0.108334 9.21452 0.325016L0.651041 8.88856C0.231253 9.30835 0 9.86671 0 10.4604V17.7781C0 19.0031 0.996881 20 2.22187 20H17.7771C19.0021 20 19.999 19.0031 19.999 17.7781L20 10.4604C20 9.86668 19.7686 9.30835 19.3488 8.88856ZM7.77788 18.8887V13.3334C7.77788 12.7199 8.27476 12.2219 8.88934 12.2219H11.1112C11.7248 12.2219 12.2227 12.7188 12.2227 13.3334V18.8887H7.77788ZM18.8883 17.7782C18.8883 18.3918 18.3914 18.8897 17.7768 18.8897H13.3331V13.3334C13.3331 12.1084 12.3362 11.1115 11.1112 11.1115H8.88934C7.66433 11.1115 6.66748 12.1084 6.66748 13.3334V18.8886H2.2216C1.60806 18.8886 1.11013 18.3907 1.11013 17.7772V10.4603C1.11013 10.1655 1.2268 9.88319 1.43515 9.67486L9.99969 1.11132L18.5632 9.67486C18.7715 9.8832 18.8882 10.1655 18.8882 10.4603L18.8883 17.7782Z" fill="#007763"/>
</svg>
