<svg width="44" height="8" viewBox="0 0 44 8" fill="none" xmlns="http://www.w3.org/2000/svg">
<path fill-rule="evenodd" clip-rule="evenodd" d="M40.1429 0.805159C41.7036 0.805159 42.562 1.49973 42.562 2.81169C42.6401 3.81496 41.9377 4.66388 41.0013 4.81823L43.1083 7.67368H41.4695L39.6746 4.8954H39.5186V7.67368H38.1919V0.805159H40.1429ZM39.5186 3.96941H39.9087C40.7672 3.96941 41.1573 3.58353 41.1573 2.88896C41.1573 2.27157 40.7672 1.8857 39.9087 1.8857H39.5186V3.96941ZM33.5876 7.67368H37.3334V6.51607H34.9142V4.66388H37.2553V3.50626H34.9142V1.96278H37.3334V0.805159H33.5876V7.67368V7.67368ZM29.6858 5.43563L27.8909 0.805159H26.4862L29.3736 7.82803H30.076L32.9634 0.805159H31.5587L29.6858 5.43563V5.43563ZM13.8442 4.27792C13.8442 6.20728 15.405 7.82794 17.3559 7.82794C17.9802 7.82794 18.5265 7.6736 19.0727 7.44207V5.89858C18.6826 6.36163 18.1363 6.67033 17.512 6.67033C16.2634 6.67033 15.2489 5.74423 15.2489 4.50944V4.35509C15.1709 3.1203 16.1854 2.03986 17.434 1.96269C18.0583 1.96269 18.6826 2.27138 19.0727 2.73443V1.19094C18.6045 0.882244 17.9802 0.805069 17.434 0.805069C15.405 0.650721 13.8442 2.27138 13.8442 4.27792V4.27792ZM11.4252 3.42909C10.6448 3.12039 10.4107 2.96604 10.4107 2.58017C10.4887 2.11712 10.8789 1.73125 11.3472 1.80843C11.7373 1.80843 12.1275 2.03995 12.4397 2.34865L13.142 1.42255C12.5958 0.959508 11.8934 0.65081 11.1911 0.65081C10.0986 0.573635 9.1621 1.42255 9.08406 2.503V2.58017C9.08406 3.50626 9.47425 4.04649 10.7229 4.43236C11.035 4.50953 11.3472 4.66388 11.6593 4.81823C11.8934 4.97258 12.0495 5.2041 12.0495 5.5128C12.0495 6.05302 11.5813 6.51607 11.113 6.51607H11.035C10.4107 6.51607 9.86444 6.1302 9.63033 5.58997L8.77191 6.43889C9.24014 7.28781 10.1766 7.75086 11.113 7.75086C12.3616 7.82803 13.3761 6.90194 13.4542 5.66715V5.43563C13.3761 4.50953 12.9859 4.04649 11.4252 3.42909V3.42909ZM6.8989 7.67368H8.22554V0.805159H6.8989V7.67368V7.67368ZM0.733887 0.805159H2.68483H3.07501C4.94791 0.882333 6.43063 2.42582 6.35259 4.27801C6.35259 5.28128 5.88437 6.20737 5.10399 6.90194C4.40165 7.44216 3.54324 7.75086 2.68483 7.67369H0.733887V0.805159ZM2.45069 6.51617C3.07499 6.59335 3.77733 6.36182 4.24555 5.97595C4.71378 5.51291 4.94789 4.89551 4.94789 4.20094C4.94789 3.58354 4.71378 2.96615 4.24555 2.5031C3.77733 2.11723 3.07499 1.88571 2.45069 1.96288H2.0605V6.51617H2.45069Z" fill="#777777"/>
<path fill-rule="evenodd" clip-rule="evenodd" d="M23.0526 0.645935C21.1017 0.645935 19.4629 2.18942 19.4629 4.19596C19.4629 6.12532 21.0236 7.74599 23.0526 7.82316C25.0816 7.90033 26.6423 6.27967 26.7204 4.27313C26.6423 2.2666 25.0816 0.645935 23.0526 0.645935V0.645935Z" fill="#777777"/>
</svg>
