<svg width="20" height="24" viewBox="0 0 20 24" fill="none" xmlns="http://www.w3.org/2000/svg">
<path d="M0.612241 16.4512C0.274538 16.4512 0 16.7176 0 17.0444V19.186C0 19.4696 0.204355 19.7068 0.476829 19.7672V21.722C0.476829 22.0492 0.751781 22.3152 1.08907 22.3152H5.70379C6.49561 23.336 7.75147 24 9.16751 24C10.9411 24 12.4673 22.9616 13.1382 21.4804C17.6253 21.0376 20 18.906 20 15.2964C20 11.246 17.2001 7.0592 13.6741 5.7024L16.3464 2.3372C16.3546 2.3268 16.3625 2.316 16.3695 2.3048C16.6172 1.9204 16.5796 1.4504 16.2745 1.1072C15.969 0.7644 15.4955 0.6596 15.0662 0.8404L13.6443 1.4404C13.4817 1.5084 13.2947 1.4604 13.1886 1.3228L12.7456 0.7468C12.3811 0.272 11.8217 0 11.2111 0C10.6005 0 10.0411 0.272 9.67654 0.7464L9.23356 1.3224C9.12788 1.46 8.94045 1.5088 8.77779 1.44L7.35597 0.84C6.92786 0.6592 6.45268 0.764 6.14759 1.1068C5.8425 1.4496 5.80452 1.92 6.07039 2.3304L8.66013 5.7284C6.38415 6.6352 4.36619 8.7416 3.26019 11.3812H1.09072C0.75178 11.3812 0.475591 11.6484 0.475591 11.9772V14.1188C0.475591 14.4472 0.751368 14.7148 1.09072 14.7148H1.26081V16.45H0.612654L0.612241 16.4512ZM0.825679 17.2512H5.7298C5.33264 17.7528 5.04737 18.3408 4.91609 18.9836H0.825266L0.825679 17.2512ZM1.30251 21.5156V19.7832H4.83311C4.83311 19.7888 4.83228 19.794 4.83228 19.8C4.83228 20.4116 4.971 20.9912 5.21457 21.5156H1.30251ZM9.16751 23.2004C7.23212 23.2004 5.65796 21.6748 5.65796 19.8C5.65796 17.9252 7.23253 16.3996 9.16751 16.3996C11.1025 16.3996 12.6771 17.9252 12.6771 19.8C12.6771 21.6748 11.1025 23.2004 9.16751 23.2004ZM6.7718 1.6308C6.80359 1.5952 6.89153 1.5176 7.0257 1.5748L8.44752 2.1748C8.96274 2.3916 9.55847 2.2388 9.89452 1.8016L10.3375 1.2252C10.5447 0.9556 10.863 0.8008 11.2102 0.8008C11.5574 0.8008 11.8753 0.9556 12.0826 1.2256L12.5255 1.8016C12.8616 2.2388 13.4561 2.3916 13.973 2.1748L15.3948 1.5748C15.5277 1.518 15.6169 1.5948 15.6487 1.6308C15.6792 1.6648 15.7411 1.7552 15.6763 1.8688L12.777 5.52H9.52544L6.75116 1.882C6.67396 1.762 6.7396 1.666 6.77098 1.6304L6.7718 1.6308ZM9.38342 6.3204H10.3111L9.46517 7.5628C9.33966 7.7472 9.39209 7.9956 9.58241 8.1172C9.6526 8.162 9.73145 8.1832 9.80947 8.1832C9.94365 8.1832 10.0753 8.12 10.1546 8.0036L11.2111 6.452L12.2675 8.0036C12.3468 8.1204 12.4785 8.1832 12.6127 8.1832C12.6907 8.1832 12.7695 8.162 12.8397 8.1172C13.03 7.9956 13.0825 7.7472 12.957 7.5628L12.1111 6.3204H13.0383C16.3711 7.3944 19.1751 11.4876 19.1751 15.2972C19.1751 18.4276 17.2864 20.18 13.4152 20.6476C13.4734 20.374 13.504 20.0904 13.504 19.8004C13.504 17.7368 11.9587 16.0196 9.93126 15.6692V14.5128C9.93126 14.1836 9.65507 13.916 9.31489 13.916H9.14645V11.9788C9.14645 11.65 8.87068 11.3828 8.53132 11.3828H4.15316C5.27113 8.9212 7.23171 7.012 9.38425 6.3204H9.38342ZM1.30086 12.1828H3.54588C3.54918 12.1828 3.55248 12.1828 3.55579 12.1828H8.31995V13.916H1.87635C1.87635 13.916 1.87223 13.9164 1.87057 13.9164H1.30086V12.1828ZM2.08608 14.7164H8.53091C8.53091 14.7164 8.53504 14.716 8.53669 14.716H9.10476V15.6032C8.15027 15.6164 7.27216 15.9312 6.56125 16.452H2.08608V14.7164Z" fill="white"/>
<path d="M9.15847 18.6806H9.84065C9.99561 18.6806 10.122 18.8136 10.122 18.9766C10.122 19.2315 10.3187 19.4383 10.561 19.4383C10.8033 19.4383 11 19.2315 11 18.9766C11 18.3394 10.5316 17.8209 9.93898 17.7678V17.4617C9.93898 17.2068 9.74232 17 9.5 17C9.25768 17 9.06102 17.2068 9.06102 17.4617V17.7678C8.46839 17.8209 8 18.3394 8 18.9766V19.2426C8 19.9148 8.52019 20.4615 9.15891 20.4615H9.84109C9.99605 20.4615 10.1225 20.5945 10.1225 20.7574V21.0234C10.1225 21.1864 9.99605 21.3189 9.84109 21.3189H9.15891C9.00395 21.3189 8.87796 21.1864 8.87796 21.0234C8.87796 20.7685 8.6813 20.5617 8.43898 20.5617C8.19666 20.5617 8 20.7685 8 21.0234C8 21.6601 8.46839 22.1786 9.06102 22.2322V22.5383C9.06102 22.7932 9.25768 23 9.5 23C9.74232 23 9.93898 22.7932 9.93898 22.5383V22.2322C10.5316 22.1791 11 21.6606 11 21.0234V20.7574C11 20.0852 10.4798 19.5381 9.84065 19.5381H9.15847C9.00351 19.5381 8.87752 19.4055 8.87752 19.2426V18.9766C8.87752 18.8136 9.00351 18.6806 9.15847 18.6806Z" fill="white"/>
</svg>
