<svg width="29" height="12" viewBox="0 0 29 12" fill="none" xmlns="http://www.w3.org/2000/svg">
<path fill-rule="evenodd" clip-rule="evenodd" d="M13.486 9.46472V6.06609H15.2401C15.9589 6.06609 16.5656 5.82525 17.0601 5.35024L17.1788 5.22982C18.0823 4.24636 18.0229 2.7143 17.0601 1.80443C16.5788 1.32274 15.9193 1.06182 15.2401 1.0752H12.4243V9.46472H13.486ZM13.486 5.03581V2.1055H15.2668C15.6493 2.1055 16.0121 2.25268 16.2825 2.52029C16.8563 3.08227 16.8695 4.0189 16.3155 4.60094C16.045 4.88862 15.6625 5.04919 15.2668 5.03581H13.486ZM22.1313 4.17278C21.6763 3.7513 21.0564 3.53721 20.2717 3.53721C19.2627 3.53721 18.5044 3.91187 18.0032 4.65448L18.9396 5.24991C19.2825 4.74145 19.7507 4.48722 20.3442 4.48722C20.7201 4.48722 21.0828 4.62772 21.3663 4.88195C21.6433 5.12279 21.8016 5.47068 21.8016 5.83865V6.08618C21.3927 5.85872 20.8783 5.73829 20.2453 5.73829C19.5067 5.73829 18.9132 5.91224 18.4714 6.26682C18.0296 6.6214 17.8054 7.08972 17.8054 7.68514C17.7922 8.22705 18.023 8.7422 18.4318 9.09009C18.8473 9.46474 19.3748 9.65207 19.9947 9.65207C20.7267 9.65207 21.307 9.32425 21.7488 8.66861H21.795V9.46474H22.8105V5.92562C22.8105 5.18301 22.5863 4.59427 22.1313 4.17278ZM19.2497 8.40773C19.0321 8.24716 18.9002 7.98624 18.9002 7.70525C18.9002 7.39081 19.0453 7.1299 19.3289 6.9225C19.6191 6.7151 19.9818 6.60806 20.4105 6.60806C21.0041 6.60137 21.4658 6.73517 21.7956 7.00278C21.7956 7.45772 21.6175 7.85244 21.2679 8.18695C20.9514 8.50808 20.5227 8.68872 20.0742 8.68872C19.7774 8.69541 19.4872 8.59505 19.2497 8.40773ZM25.0921 11.9869L28.6399 3.72453H27.4859L25.8439 7.84569H25.8241L24.1425 3.72453H22.9885L25.3163 9.09676L23.9975 11.9869H25.0921Z" fill="#777777"/>
<path d="M9.82062 5.33016C9.82062 5.00234 9.79424 4.67452 9.74148 4.35339H5.26392V6.20658H7.82912C7.72361 6.80201 7.3807 7.33723 6.87953 7.67174V8.87598H8.40942C9.30626 8.0397 9.82062 6.80201 9.82062 5.33016Z" fill="#777777"/>
<path d="M5.26422 10.04C6.54352 10.04 7.625 9.61183 8.40973 8.87591L6.87984 7.67167C6.4512 7.96604 5.90387 8.13329 5.26422 8.13329C4.02448 8.13329 2.97598 7.28364 2.6001 6.1463H1.02405V7.39068C1.82856 9.0164 3.47055 10.04 5.26422 10.04Z" fill="#777777"/>
<path d="M2.60032 6.14638C2.40246 5.55095 2.40246 4.902 2.60032 4.29988V3.06219H1.02402C0.344695 4.42031 0.344695 6.02596 1.02402 7.38407L2.60032 6.14638Z" fill="#777777"/>
<path d="M5.26422 2.31282C5.94344 2.29944 6.59628 2.56036 7.08426 3.03537L8.4427 1.65718C7.57884 0.840978 6.44461 0.392733 5.26422 0.406114C3.47055 0.406114 1.82856 1.43641 1.02405 3.06213L2.6001 4.30651C2.97598 3.16248 4.02448 2.31282 5.26422 2.31282Z" fill="#777777"/>
</svg>
