<svg width="20" height="17" viewBox="0 0 20 17" fill="none" xmlns="http://www.w3.org/2000/svg">
<path d="M13.4676 10.459C13.0877 10.3824 12.7205 10.6284 12.644 11.0075C12.1647 13.3981 10.3481 15.1346 8.32631 15.1346H5.84725C3.39454 15.1346 1.39944 12.7119 1.39944 9.73562V6.79825C1.39944 3.82169 3.3947 1.3993 5.84725 1.3993H8.32631C10.3471 1.3993 12.1628 3.13399 12.644 5.52384C12.7205 5.90285 13.0877 6.14703 13.4676 6.07141C13.8466 5.99488 14.0917 5.62589 14.0151 5.24688C13.3929 2.15743 11.0533 0 8.32536 0H5.84723C2.62297 0 0 3.05026 0 6.79836V9.73574C0 13.4838 2.62297 16.5341 5.84723 16.5341H8.32629C11.0559 16.5341 13.3954 14.3748 14.0161 11.2826C14.0926 10.9035 13.8466 10.5355 13.4676 10.459Z" fill="#007763"/>
<path d="M19.9802 8.42687C19.982 8.42049 19.9848 8.41411 19.9857 8.40774C19.9948 8.36218 20.0003 8.31572 19.9993 8.26925C20.0003 8.26834 20.0003 8.26743 20.0003 8.26743C20.0003 8.25285 19.9966 8.2401 19.9966 8.22552C19.9948 8.19455 19.993 8.16357 19.9875 8.1335C19.9811 8.09888 19.9693 8.06699 19.9584 8.03419C19.9547 8.02417 19.9529 8.01415 19.9492 8.00504C19.9119 7.91393 19.8563 7.83194 19.7862 7.76453L16.8817 4.84815C16.6083 4.57482 16.1656 4.57391 15.8922 4.84632C15.6189 5.11874 15.6171 5.56243 15.8904 5.83576L17.6142 7.56772H3.97803C3.59174 7.56772 3.27832 7.88114 3.27832 8.26743C3.27832 8.65371 3.59174 8.96714 3.97803 8.96714H17.617L15.8896 10.6991C15.6162 10.9724 15.6172 11.4152 15.8914 11.6885C16.0281 11.8252 16.2066 11.8926 16.3852 11.8926C16.5647 11.8926 16.7442 11.8243 16.8808 11.6867L19.7963 8.7631C19.861 8.69841 19.9093 8.6237 19.943 8.54444C19.9439 8.54262 19.9448 8.5408 19.9457 8.53897C19.9612 8.50253 19.9711 8.46513 19.9802 8.42687Z" fill="#007763"/>
</svg>
