<svg width="197" height="80" viewBox="0 0 197 80" fill="none" xmlns="http://www.w3.org/2000/svg">
<path opacity="0.35" fill-rule="evenodd" clip-rule="evenodd" d="M15.4044 79.2972C5.45089 67.8873 -0.0228436 53.2524 7.16584e-05 38.1111C7.16584e-05 36.6132 0.0568111 35.1267 0.158939 33.6515L39.8415 36.4884C39.7904 37.0898 39.7677 37.6969 39.7677 38.3097C39.7739 43.8024 41.7532 49.1102 45.3451 53.2658L15.4044 79.2972Z" fill="#007763"/>
<path opacity="0.35" fill-rule="evenodd" clip-rule="evenodd" d="M70.185 9.50982C77.2622 11.3388 83.41 15.7265 87.4402 21.8249C91.4704 27.9232 93.0967 35.299 92.0047 42.5267C90.9128 49.7544 87.1802 56.3207 81.5284 60.9563C75.8766 65.5919 68.707 67.9677 61.4053 67.6244C54.1037 67.2811 47.1886 64.2431 41.9966 59.0977C36.8047 53.9523 33.7046 47.0648 33.2956 39.7665C32.8866 32.4683 35.1977 25.2775 39.7823 19.5842C44.3668 13.8909 50.8992 10.0994 58.1168 8.94244L59.1778 15.5865C53.5625 16.4838 48.4795 19.4319 44.9122 23.8604C41.3449 28.2889 39.5469 33.8831 39.8659 39.5607C40.1849 45.2383 42.5984 50.5959 46.6393 54.5969C50.6803 58.5979 56.0615 60.9579 61.742 61.2205C67.4225 61.4832 72.9986 59.6296 77.3914 56.0185C81.7843 52.4074 84.6817 47.2954 85.5232 41.6714C86.3647 36.0474 85.0904 30.3112 81.9469 25.5724C78.8034 20.8337 74.0141 17.4292 68.5055 16.0177L70.185 9.50982Z" fill="#007763"/>
<path opacity="0.6" fill-rule="evenodd" clip-rule="evenodd" d="M91.9152 28.301C94.0323 34.5871 94.0642 41.3885 92.006 47.6941L84.6982 45.3054C86.1951 40.5751 86.1314 35.4889 84.5166 30.7975L91.9152 28.301Z" fill="#007763"/>
<path opacity="0.6" fill-rule="evenodd" clip-rule="evenodd" d="M68.738 73.9468C62.6215 74.9661 56.3457 74.3957 50.5133 72.2903C44.6809 70.1849 39.4878 66.6151 35.4328 61.924L45.3449 53.2658C47.5013 55.7808 50.177 57.7987 53.1879 59.1807C56.1987 60.5628 59.4733 61.276 62.7862 61.2715C64.0597 61.2714 65.3311 61.1671 66.5876 60.9595L68.738 73.9468ZM39.8583 36.5451L26.7122 35.9777C27.1709 28.5087 29.9476 21.3687 34.6555 15.5521L44.908 23.8074C41.9623 27.4373 40.1999 31.8829 39.8583 36.5451Z" fill="#007763"/>
<path opacity="0.35" fill-rule="evenodd" clip-rule="evenodd" d="M99.0761 38.2981C99.0721 46.8793 96.0294 55.1817 90.4874 61.7332C84.9454 68.2847 77.2624 72.6618 68.8007 74.0885L66.6106 60.9706C71.9731 60.0649 76.841 57.288 80.3499 53.133C83.8588 48.978 85.7815 43.7139 85.7767 38.2755L99.0761 38.2981Z" fill="#007763"/>
<path opacity="0.35" fill-rule="evenodd" clip-rule="evenodd" d="M31.7505 13.254C36.8724 6.9059 43.8169 2.28017 51.6485 0L56.3861 16.2044C51.874 17.5083 47.8688 20.1613 44.908 23.8073L31.7505 13.254Z" fill="#007763"/>
<path opacity="0.6" fill-rule="evenodd" clip-rule="evenodd" d="M62.7862 4.89614C64.3712 4.89831 65.9542 5.01017 67.5238 5.23089L66.0599 15.5345C62.8202 15.0714 59.519 15.3015 56.3748 16.2097L53.4641 6.21813C56.4931 5.33803 59.6319 4.89291 62.7862 4.89614Z" fill="#007763"/>
<path opacity="0.35" fill-rule="evenodd" clip-rule="evenodd" d="M33.4133 48.1986L40.9765 45.6C42.4952 50.1234 45.382 54.063 49.2375 56.8739L44.551 63.3533C39.362 59.5737 35.4711 54.2795 33.4133 48.1986Z" fill="#007763"/>
<path fill-rule="evenodd" clip-rule="evenodd" d="M106.185 49.1862H112.296C113.076 49.1877 113.855 49.1365 114.628 49.033C119.212 48.4656 122.883 44.023 122.883 38.6499C122.883 33.2769 119.161 28.8683 114.599 28.3009C113.834 28.1934 113.063 28.1403 112.29 28.1421L106.185 28.1648V49.1862ZM110.066 45.623V31.7052H110.327C111.696 31.7029 113.063 31.7996 114.418 31.9946C117.379 32.562 118.821 35.1662 118.821 38.6783C118.821 42.1904 117.351 44.8174 114.418 45.3677H114.389C113.042 45.5387 111.685 45.6259 110.327 45.6287L110.066 45.623Z" fill="#007763"/>
<path fill-rule="evenodd" clip-rule="evenodd" d="M125.192 43.4443C125.192 47.382 127.814 49.6855 132.137 49.6855C136.148 49.6855 138.747 47.5351 139.008 44.2046C139.052 43.7255 139.069 43.2444 139.059 42.7635L139.093 34.8996H135.371V41.5096C135.371 42.2415 135.343 42.9734 135.314 43.6316C135.184 45.4926 134.055 46.5139 132.143 46.5139C130.231 46.5139 129.102 45.4642 128.943 43.6316C128.943 42.9791 128.892 42.2699 128.943 41.5379V34.8996H125.192V43.4443Z" fill="#007763"/>
<path fill-rule="evenodd" clip-rule="evenodd" d="M141.788 49.1864H145.612V42.2133C145.603 41.7418 145.621 41.2701 145.664 40.8005C145.822 38.7523 146.951 37.6005 148.841 37.6005C151.014 37.6005 152.064 38.9906 152.064 41.6119L152.092 49.1864H155.786L155.757 40.9537C155.786 36.8913 153.193 34.3778 148.841 34.4005C147.599 34.372 146.375 34.7094 145.323 35.3707L144.932 35.6317V34.5423H141.788V49.1864Z" fill="#007763"/>
<path fill-rule="evenodd" clip-rule="evenodd" d="M157.907 41.9183C157.907 45.7765 160.665 49.0787 164.33 49.3907C165.174 49.4857 166.028 49.3914 166.831 49.1146C167.634 48.8378 168.365 48.3856 168.971 47.7907L169.419 47.3765V49.1808H173.136V35.5013C172.722 35.3991 172.165 35.2403 171.672 35.1608C171.362 35.162 171.054 35.1982 170.753 35.2686H170.673H170.594C168.894 34.6744 167.101 34.39 165.3 34.4289C164.984 34.4313 164.667 34.4502 164.353 34.4857C160.71 34.7977 157.93 38.0999 157.93 41.9524L157.907 41.9183ZM161.788 41.9183C161.788 39.4048 163.416 37.697 165.646 37.697C167.876 37.697 169.47 39.3992 169.47 41.9183V41.9978C169.47 44.4659 167.899 46.1396 165.646 46.1396C163.394 46.1396 161.788 44.4148 161.788 41.9183Z" fill="#007763"/>
<path fill-rule="evenodd" clip-rule="evenodd" d="M175.292 41.6797C175.292 45.7251 178.129 49.2145 181.873 49.4244C182.163 49.4244 182.441 49.4244 182.736 49.4244C184.071 49.415 185.357 48.921 186.356 48.0343L186.827 47.6145L186.798 48.267C186.787 48.7432 186.735 49.2177 186.645 49.6854C186.327 51.8585 184.376 52.6755 182.815 52.6982C181.216 52.7572 179.647 52.2509 178.384 51.2684L176.444 53.6684C177.783 55.5351 180.353 56.1025 182.781 56.1025C186.997 56.0741 190.486 54.0826 190.486 48.9421V34.542H188.177C188.172 34.7698 188.155 34.997 188.126 35.2229L188.047 35.6711L187.706 35.3818C186.374 34.4152 184.768 33.9003 183.122 33.9123H181.834C178.163 34.1732 175.281 37.6286 175.281 41.6627L175.292 41.6797ZM179.173 41.413C179.173 38.9052 180.795 37.2314 183.025 37.2314C185.255 37.2314 186.537 38.4343 186.827 40.0286C186.849 40.1941 186.858 40.361 186.855 40.5279V41.5208C186.855 41.8873 186.828 42.2532 186.776 42.6159C186.601 43.4765 186.13 44.2486 185.445 44.798C184.759 45.3473 183.903 45.6392 183.025 45.623C180.716 45.623 179.173 43.8981 179.173 41.413Z" fill="#007763"/>
<path fill-rule="evenodd" clip-rule="evenodd" d="M193.25 49.1859H197V34.5418H193.25V49.1689V49.1859ZM193.301 29.3957C193.313 30.1624 193.42 30.9246 193.619 31.6652C194.065 31.8579 194.545 31.9564 195.031 31.9546C195.573 31.9555 196.109 31.8474 196.609 31.6368C196.807 31.1539 196.913 30.6382 196.921 30.1163C196.915 29.5941 196.809 29.0779 196.609 28.5957C196.161 28.3978 195.679 28.2917 195.19 28.2836C194.805 28.2837 194.426 28.3868 194.094 28.5824C193.762 28.7779 193.488 29.0587 193.301 29.3957Z" fill="#007763"/>
<path d="M67.9151 60.1293C79.9743 57.2986 87.4555 45.228 84.6248 33.1689C81.7941 21.1097 69.7235 13.6285 57.6644 16.4592C45.6052 19.2899 38.1241 31.3605 40.9547 43.4196C43.7854 55.4788 55.856 62.96 67.9151 60.1293Z" fill="#FDD302"/>
<path d="M63.8849 52.2834C71.6072 51.677 77.3759 44.9252 76.7695 37.2028C76.1631 29.4805 69.4112 23.7119 61.6889 24.3183C53.9665 24.9247 48.1979 31.6765 48.8043 39.3988C49.4107 47.1212 56.1625 52.8898 63.8849 52.2834Z" fill="#FDD302"/>
<path fill-rule="evenodd" clip-rule="evenodd" d="M61.8668 26.5804C55.394 27.0887 50.5588 32.748 51.0671 39.2208C51.5754 45.6936 57.2347 50.5288 63.7075 50.0205C70.1803 49.5122 75.0155 43.8529 74.5072 37.3801C73.9989 30.9073 68.3396 26.0722 61.8668 26.5804ZM46.542 39.5761C45.8375 30.6042 52.5395 22.7599 61.5115 22.0553C70.4834 21.3508 78.3278 28.0529 79.0323 37.0248C79.7368 45.9967 73.0348 53.8411 64.0628 54.5456C55.0909 55.2501 47.2466 48.5481 46.542 39.5761Z" fill="white"/>
<path fill-rule="evenodd" clip-rule="evenodd" d="M54.7012 21.2938C54.7012 20.579 54.9851 19.8935 55.4905 19.3881C55.996 18.8827 56.6815 18.5988 57.3962 18.5988C58.111 18.5988 58.7965 18.8827 59.3019 19.3881C59.8073 19.8935 60.0913 20.579 60.0913 21.2938V55.2458C60.0913 55.9606 59.8073 56.6461 59.3019 57.1515C58.7965 57.6569 58.111 57.9409 57.3962 57.9409C56.6815 57.9409 55.996 57.6569 55.4905 57.1515C54.9851 56.6461 54.7012 55.9606 54.7012 55.2458V21.2938Z" fill="#FDD302"/>
<path d="M65.4814 24.2722H60.0913V52.2667H65.4814V24.2722Z" fill="white"/>
</svg>
