<svg width="25" height="19" viewBox="0 0 25 19" fill="none" xmlns="http://www.w3.org/2000/svg">
<path d="M1.78571 0.720703H10.7143C11.1879 0.720703 11.6421 0.909398 11.977 1.24528C12.3119 1.58116 12.5 2.03671 12.5 2.51171C12.5 2.98672 12.3119 3.44227 11.977 3.77815C11.6421 4.11403 11.1879 4.30272 10.7143 4.30272H1.78571C1.31211 4.30272 0.85791 4.11403 0.523024 3.77815C0.188137 3.44227 0 2.98672 0 2.51171C0 2.03671 0.188137 1.58116 0.523024 1.24528C0.85791 0.909398 1.31211 0.720703 1.78571 0.720703V0.720703ZM14.2857 15.0488H23.2143C23.6879 15.0488 24.1421 15.2375 24.477 15.5734C24.8119 15.9092 25 16.3648 25 16.8398C25 17.3148 24.8119 17.7704 24.477 18.1062C24.1421 18.4421 23.6879 18.6308 23.2143 18.6308H14.2857C13.8121 18.6308 13.3579 18.4421 13.023 18.1062C12.6881 17.7704 12.5 17.3148 12.5 16.8398C12.5 16.3648 12.6881 15.9092 13.023 15.5734C13.3579 15.2375 13.8121 15.0488 14.2857 15.0488ZM1.78571 7.88475H23.2143C23.6879 7.88475 24.1421 8.07344 24.477 8.40932C24.8119 8.7452 25 9.20075 25 9.67576C25 10.1508 24.8119 10.6063 24.477 10.9422C24.1421 11.2781 23.6879 11.4668 23.2143 11.4668H1.78571C1.31211 11.4668 0.85791 11.2781 0.523024 10.9422C0.188137 10.6063 0 10.1508 0 9.67576C0 9.20075 0.188137 8.7452 0.523024 8.40932C0.85791 8.07344 1.31211 7.88475 1.78571 7.88475Z" fill="#B1B1B1"/>
</svg>
