<svg width="23" height="20" viewBox="0 0 23 20" fill="none" xmlns="http://www.w3.org/2000/svg">
<path fill-rule="evenodd" clip-rule="evenodd" d="M3.13779 13.8829H1.3877C1.26794 13.8829 1.16608 13.9699 1.14741 14.0881L0.43958 18.5759C0.425511 18.6644 0.494091 18.7443 0.583915 18.7443H1.41943C1.53919 18.7443 1.64104 18.6572 1.65972 18.5388L1.85063 17.3284C1.86904 17.2099 1.97115 17.1229 2.09066 17.1229H2.64468C3.79753 17.1229 4.46283 16.565 4.63668 15.4596C4.71495 14.9759 4.63999 14.5959 4.41345 14.3297C4.16476 14.0375 3.72351 13.8829 3.13779 13.8829ZM3.3397 15.522C3.24402 16.15 2.76419 16.15 2.30025 16.15H2.03615L2.22142 14.9771C2.23242 14.9063 2.29384 14.8541 2.3655 14.8541H2.48654C2.80257 14.8541 3.10073 14.8541 3.2548 15.0342C3.34657 15.1417 3.37476 15.3013 3.3397 15.522ZM8.36926 15.5018H7.53117C7.45976 15.5018 7.39807 15.5541 7.38705 15.625L7.34999 15.8594L7.29137 15.7744C7.10994 15.5111 6.70541 15.4231 6.30159 15.4231C5.3754 15.4231 4.58445 16.1245 4.43038 17.1085C4.35033 17.5992 4.46413 18.0685 4.74255 18.3959C4.99798 18.6968 5.36344 18.8222 5.79817 18.8222C6.54435 18.8222 6.95824 18.3423 6.95824 18.3423L6.92082 18.5753C6.90673 18.6643 6.9753 18.7441 7.06459 18.7441H7.81954C7.93962 18.7441 8.04087 18.6571 8.05982 18.5387L8.51278 15.6702C8.52711 15.582 8.45878 15.5018 8.36926 15.5018ZM7.20101 17.133C7.12013 17.6118 6.74011 17.9332 6.25552 17.9332C6.01216 17.9332 5.81759 17.8551 5.69277 17.7072C5.5689 17.5604 5.52177 17.3513 5.5612 17.1184C5.63676 16.6437 6.02317 16.3119 6.50042 16.3119C6.73833 16.3119 6.93183 16.3908 7.05926 16.5401C7.18692 16.6908 7.2376 16.9011 7.20101 17.133ZM11.9905 15.5017H12.8327C12.9507 15.5017 13.0195 15.634 12.9525 15.7307L10.1514 19.774C10.106 19.8394 10.0313 19.8784 9.95151 19.8784H9.11035C8.99192 19.8784 8.92277 19.7451 8.99133 19.6481L9.86352 18.4169L8.93591 15.6946C8.90382 15.6 8.97369 15.5017 9.07435 15.5017H9.90189C10.0094 15.5017 10.1043 15.5723 10.1353 15.6752L10.6276 17.3194L11.7892 15.6084C11.8347 15.5416 11.9102 15.5017 11.9905 15.5017Z" fill="#777777"/>
<path fill-rule="evenodd" clip-rule="evenodd" d="M21.1214 18.5758L21.8396 14.006C21.8507 13.935 21.9121 13.8828 21.9835 13.8826H22.7921C22.8814 13.8826 22.95 13.9626 22.9359 14.0512L22.2276 18.5387C22.2091 18.6572 22.1073 18.7442 21.9873 18.7442H21.2652C21.1759 18.7442 21.1073 18.6644 21.1214 18.5758ZM15.6208 13.8828H13.8704C13.7509 13.8828 13.649 13.9698 13.6303 14.088L12.9225 18.5758C12.9084 18.6644 12.977 18.7442 13.0664 18.7442H13.9645C14.048 18.7442 14.1194 18.6833 14.1324 18.6004L14.3333 17.3283C14.3517 17.2098 14.4538 17.1229 14.5733 17.1229H15.1271C16.2801 17.1229 16.9453 16.565 17.1193 15.4595C17.1978 14.9759 17.1224 14.5958 16.8959 14.3296C16.6474 14.0375 16.2065 13.8828 15.6208 13.8828ZM15.8227 15.5219C15.7272 16.1499 15.2474 16.1499 14.7832 16.1499H14.5193L14.7049 14.977C14.7159 14.9062 14.7768 14.854 14.8486 14.854H14.9697C15.2855 14.854 15.5839 14.854 15.7379 15.0341C15.8298 15.1416 15.8577 15.3013 15.8227 15.5219ZM20.8518 15.5018H20.0143C19.9423 15.5018 19.8812 15.554 19.8704 15.6249L19.8333 15.8593L19.7745 15.7744C19.593 15.511 19.1887 15.423 18.7849 15.423C17.8587 15.423 17.068 16.1244 16.9139 17.1084C16.8341 17.5992 16.9475 18.0685 17.2259 18.3958C17.4818 18.6967 17.8468 18.8221 18.2815 18.8221C19.0277 18.8221 19.4415 18.3423 19.4415 18.3423L19.4042 18.5752C19.3901 18.6643 19.4586 18.7441 19.5485 18.7441H20.3031C20.4226 18.7441 20.5244 18.657 20.5431 18.5386L20.9964 15.6702C21.0102 15.5819 20.9416 15.5018 20.8518 15.5018ZM19.6836 17.1329C19.6032 17.6117 19.2227 17.9331 18.738 17.9331C18.4951 17.9331 18.3002 17.8551 18.1753 17.7072C18.0514 17.5603 18.0049 17.3512 18.0438 17.1184C18.1197 16.6436 18.5057 16.3118 18.9829 16.3118C19.221 16.3118 19.4143 16.3908 19.5419 16.54C19.67 16.6907 19.7207 16.9011 19.6836 17.1329Z" fill="#777777"/>
<path d="M9.61438 12.2774L9.82955 10.9108L9.3503 10.8997H7.06177L8.65219 0.815208C8.65705 0.784762 8.67315 0.756376 8.6966 0.73622C8.72005 0.716064 8.75013 0.704956 8.78139 0.704956H12.6402C13.9213 0.704956 14.8053 0.971538 15.267 1.4977C15.4833 1.74455 15.6212 2.00248 15.6878 2.28634C15.7577 2.5842 15.759 2.94005 15.6907 3.37407L15.6857 3.40575V3.68384L15.9022 3.80645C16.0844 3.90312 16.2291 4.01378 16.3402 4.1405C16.5254 4.35154 16.6452 4.61977 16.6957 4.93777C16.748 5.26483 16.7307 5.654 16.6452 6.09461C16.5464 6.60145 16.3868 7.04287 16.1712 7.40407C15.9729 7.73689 15.7203 8.01287 15.4204 8.22686C15.1341 8.43008 14.7939 8.58438 14.4092 8.68315C14.0364 8.78014 13.6115 8.82916 13.1454 8.82916H12.8451C12.6304 8.82916 12.4217 8.9065 12.2581 9.04517C12.0939 9.18668 11.9852 9.37995 11.9519 9.59145L11.9293 9.7145L11.5492 12.1231L11.5319 12.2116C11.5274 12.2396 11.5196 12.2536 11.5081 12.2631C11.4978 12.2716 11.483 12.2774 11.4685 12.2774H9.61438Z" fill="#777777"/>
<path d="M16.1274 3.39962L16.0736 3.37117L16.0643 3.43125C16.0529 3.50434 16.0398 3.57913 16.0251 3.65601C15.7723 4.95364 15.2148 5.82174 14.4488 6.36632C13.6818 6.91158 12.7006 7.1362 11.5941 7.1362H10.462C10.1686 7.1362 9.92141 7.34934 9.87572 7.63846L9.87571 7.63848L9.29603 11.3147L9.29603 11.3147L9.1319 12.3567L9.13189 12.3568C9.10019 12.5591 9.25627 12.7417 9.46059 12.7417H11.4687C11.7276 12.7417 11.9474 12.5538 11.9885 12.2987L12.0081 12.1973L12.0082 12.1973L12.0084 12.1958L12.3863 9.79766L12.3864 9.7971L12.4106 9.66609L12.4106 9.66609L12.4108 9.66495C12.4444 9.45074 12.6287 9.29348 12.8451 9.29348H13.1454C14.1235 9.29348 15.0006 9.09498 15.69 8.6048C16.3803 8.11397 16.8774 7.33436 17.1016 6.18279L17.0591 6.17451L17.1016 6.18279C17.2887 5.22211 17.1941 4.40842 16.6893 3.83307L16.6892 3.83302C16.5364 3.65944 16.3473 3.51607 16.1274 3.39962Z" fill="#777777" stroke="#777777" stroke-width="0.0866895"/>
<path d="M15.5745 3.22581C15.4968 3.20318 15.4165 3.18261 15.3342 3.1641C15.2515 3.146 15.1667 3.12996 15.0796 3.11597C14.7743 3.0666 14.4398 3.04315 14.0815 3.04315H11.057C10.9825 3.04315 10.9118 3.06002 10.8484 3.09046C10.7089 3.15751 10.6053 3.28958 10.5802 3.45125L9.93669 7.52651L9.91821 7.6454C9.96061 7.37717 10.1898 7.1797 10.4617 7.1797H11.5938C13.8174 7.1797 15.5585 6.2767 16.0673 3.66435C16.0825 3.58701 16.0953 3.51173 16.1068 3.43809C15.978 3.3698 15.8385 3.31138 15.6884 3.2616C15.6514 3.24926 15.6132 3.23733 15.5745 3.22581Z" fill="#777777"/>
<path d="M10.5806 3.45119C10.6057 3.2895 10.7094 3.15745 10.8488 3.0908C10.9126 3.06035 10.983 3.04349 11.0573 3.04349H14.082C14.4403 3.04349 14.7748 3.06694 15.0799 3.11631C15.1672 3.13029 15.252 3.14634 15.3347 3.16444C15.417 3.18296 15.4971 3.20353 15.5749 3.22615C15.6135 3.23767 15.6518 3.24959 15.6892 3.26153C15.8394 3.3113 15.9789 3.37014 16.1076 3.43802C16.2591 2.47248 16.1064 1.81507 15.5844 1.21978C15.0089 0.564443 13.9701 0.283875 12.6409 0.283875H8.78195C8.51041 0.283875 8.27889 0.481333 8.23685 0.749976L6.62961 10.9381C6.59788 11.1397 6.75336 11.3216 6.95658 11.3216H9.33902L9.93717 7.52644L10.5806 3.45119Z" fill="#777777"/>
</svg>
