<svg width="20" height="21" viewBox="0 0 20 21" fill="none" xmlns="http://www.w3.org/2000/svg">
<path d="M16.4884 0H3.51156C1.57547 0 0 1.57547 0 3.51156V17.2355C0 19.1715 1.57547 20.747 3.51156 20.747H16.4884C18.4245 20.747 20 19.1715 20 17.2355V3.51156C20 1.57477 18.4252 0 16.4884 0ZM18.7462 17.2348C18.7462 18.4795 17.7332 19.4925 16.4884 19.4925H3.51156C2.26678 19.4925 1.25383 18.4795 1.25383 17.2348V3.51156C1.25383 2.26608 2.26678 1.25313 3.51156 1.25313H16.4884C17.7332 1.25313 18.7462 2.26608 18.7462 3.51086V17.2348Z" fill="#007763"/>
<path d="M6.81309 5.56075H13.186C13.532 5.56075 13.8125 5.28019 13.8125 4.93418C13.8125 4.58818 13.532 4.30762 13.186 4.30762H6.81309C6.46709 4.30762 6.18652 4.58818 6.18652 4.93418C6.18652 5.28019 6.46709 5.56075 6.81309 5.56075Z" fill="#007763"/>
<path d="M15.4116 8.9885L14.1786 9.98266L13.8911 9.61577C13.6774 9.34286 13.284 9.29552 13.0111 9.50995C12.7389 9.72368 12.6916 10.117 12.9053 10.3899L13.5848 11.256C13.6878 11.3876 13.8396 11.4732 14.006 11.492C14.0296 11.4948 14.0533 11.4962 14.0777 11.4962C14.2197 11.4962 14.3589 11.4474 14.4703 11.3576L16.1976 9.96595C16.4677 9.74804 16.5095 9.354 16.2929 9.08458C16.0771 8.81515 15.681 8.77199 15.4116 8.9885Z" fill="#007763"/>
<path d="M10.4515 9.54492H4.19493C3.84892 9.54492 3.56836 9.82548 3.56836 10.1715C3.56836 10.5175 3.84892 10.7981 4.19493 10.7981H10.4515C10.7975 10.7981 11.0781 10.5175 11.0781 10.1715C11.0781 9.82548 10.7975 9.54492 10.4515 9.54492Z" fill="#007763"/>
<path d="M15.4116 13.9318L14.1786 14.9259L13.8911 14.5597C13.6774 14.2868 13.284 14.2395 13.0111 14.4539C12.7389 14.6677 12.6916 15.061 12.9053 15.3339L13.5848 16.2C13.6878 16.3315 13.8396 16.4172 14.006 16.436C14.0296 16.4388 14.0533 16.4401 14.0777 16.4401C14.2197 16.4401 14.3589 16.3914 14.4703 16.3016L16.1976 14.9092C16.4677 14.6913 16.5095 14.2973 16.2929 14.0279C16.0757 13.7577 15.681 13.716 15.4116 13.9318Z" fill="#007763"/>
<path d="M10.4515 14.4893H4.19493C3.84892 14.4893 3.56836 14.7698 3.56836 15.1158C3.56836 15.4618 3.84892 15.7424 4.19493 15.7424H10.4515C10.7975 15.7424 11.0781 15.4618 11.0781 15.1158C11.0781 14.7698 10.7975 14.4893 10.4515 14.4893Z" fill="#007763"/>
</svg>
