<svg width="20" height="27" viewBox="0 0 20 27" fill="none" xmlns="http://www.w3.org/2000/svg">
<path d="M4.21682 26.2365H15.779C16.8983 26.2345 17.9707 25.7884 18.7629 24.9963C19.5539 24.2043 19.999 23.1308 20 22.0113V4.2252C19.999 3.10588 19.5539 2.0324 18.7629 1.24021C17.9708 0.448122 16.8984 0.00208106 15.779 0H9.92694C9.38501 0.00312666 8.85452 0.155287 8.39282 0.437717L8.37614 0.445012C8.17083 0.566949 7.98114 0.713896 7.81023 0.880648L0.873352 7.81752C0.696179 7.99887 0.544011 8.20105 0.41896 8.42199V8.43033V8.42929C0.146955 8.88576 0.00208106 9.40584 0 9.9363V22.0113C0.00104213 23.1306 0.446068 24.203 1.23604 24.9952C2.02602 25.7862 3.09852 26.2334 4.21682 26.2365ZM6.52947 7.38212C5.54147 7.06633 4.49614 6.97567 3.46844 7.11531L6.57429 4.00332C6.32729 5.11432 6.31166 6.26387 6.52948 7.37998L6.52947 7.38212ZM9.92507 1.33423H15.779C17.3736 1.3384 18.6647 2.63073 18.6658 4.2253V22.0115C18.6648 23.6071 17.3714 24.9004 15.7758 24.9025H4.21682C2.62225 24.8984 1.33108 23.606 1.33001 22.0115V9.93755C1.33105 9.66971 1.39776 9.40707 1.52386 9.17154C3.03087 8.27524 4.87037 8.13351 6.49627 8.78697C6.87355 8.92975 7.29876 8.8495 7.59995 8.58061C7.9001 8.31173 8.02622 7.89797 7.92617 7.50716C7.39673 5.43319 7.85113 3.23111 9.15701 1.53424C9.39255 1.40605 9.65618 1.33735 9.92507 1.33423Z" fill="#007763"/>
<path d="M11.2432 5.17191H15.3725C15.7404 5.17191 16.0395 4.87279 16.0395 4.5049C16.0395 4.13596 15.7404 3.83789 15.3725 3.83789H11.2432C10.8742 3.83789 10.5762 4.13596 10.5762 4.5049C10.5762 4.87279 10.8742 5.17191 11.2432 5.17191Z" fill="#007763"/>
<path d="M11.2432 8.19144H15.3725C15.7404 8.19144 16.0395 7.89336 16.0395 7.52443C16.0395 7.15653 15.7404 6.85742 15.3725 6.85742H11.2432C10.8742 6.85742 10.5762 7.15653 10.5762 7.52443C10.5762 7.89336 10.8742 8.19144 11.2432 8.19144Z" fill="#007763"/>
<path d="M8.78125 12.8858C8.78125 13.2547 9.08036 13.5528 9.44826 13.5528H16.0599C16.4288 13.5528 16.7269 13.2547 16.7269 12.8858C16.7269 12.5179 16.4288 12.2188 16.0599 12.2188H9.44826C9.08036 12.2188 8.78125 12.5179 8.78125 12.8858Z" fill="#007763"/>
<path d="M6.57592 11.377L4.9751 12.9778L4.40814 12.4108L4.40919 12.4119C4.14864 12.1513 3.7255 12.1513 3.46494 12.4119C3.20439 12.6724 3.20439 13.0945 3.46494 13.3551L4.18926 14.0794C4.62385 14.5119 5.32629 14.5119 5.76089 14.0794L7.52222 12.318H7.52117C7.77443 12.0565 7.7713 11.6406 7.51388 11.3832C7.25645 11.1258 6.84063 11.1216 6.57903 11.3749L6.57592 11.377Z" fill="#007763"/>
<path d="M16.0599 16.2988H9.44826C9.08036 16.2988 8.78125 16.5979 8.78125 16.9658C8.78125 17.3348 9.08036 17.6328 9.44826 17.6328H16.0599C16.4288 17.6328 16.7269 17.3348 16.7269 16.9658C16.7269 16.5979 16.4288 16.2988 16.0599 16.2988Z" fill="#007763"/>
<path d="M6.57605 15.4557L4.97523 17.0565L4.40619 16.4979C4.14564 16.2373 3.72355 16.2373 3.46299 16.4979C3.20244 16.7584 3.20244 17.1805 3.46299 17.4411L4.18731 18.1643H4.18626C4.3947 18.3728 4.67713 18.4895 4.97208 18.4895C5.26703 18.4895 5.54947 18.3728 5.75789 18.1643L7.51922 16.403C7.77143 16.1414 7.7683 15.7256 7.51088 15.4682C7.2545 15.2107 6.83763 15.2066 6.57603 15.4598L6.57605 15.4557Z" fill="#007763"/>
<path d="M16.0599 20.3799H9.44826C9.08036 20.3799 8.78125 20.678 8.78125 21.0469C8.78125 21.4148 9.08036 21.7139 9.44826 21.7139H16.0599C16.4288 21.7139 16.7269 21.4148 16.7269 21.0469C16.7269 20.678 16.4288 20.3799 16.0599 20.3799Z" fill="#007763"/>
<path d="M6.57625 19.5378L4.97543 21.1387L4.40847 20.5717H4.40952C4.14792 20.3184 3.73104 20.3226 3.47363 20.579C3.2162 20.8364 3.21308 21.2522 3.46529 21.5138L4.1896 22.2382C4.6242 22.6707 5.32664 22.6707 5.76123 22.2382L7.52256 20.4768H7.52152C7.77477 20.2152 7.77165 19.7994 7.51422 19.542C7.2568 19.2846 6.84097 19.2814 6.57937 19.5336L6.57625 19.5378Z" fill="#007763"/>
</svg>
