<svg width="28" height="10" viewBox="0 0 28 10" fill="none" xmlns="http://www.w3.org/2000/svg">
<path fill-rule="evenodd" clip-rule="evenodd" d="M6.94986 9.02735H4.56446L2.7757 2.20314C2.6908 1.88922 2.51053 1.61171 2.24536 1.48091C1.58359 1.15221 0.854358 0.890614 0.0588379 0.758679V0.495947H3.90153C4.43187 0.495947 4.82963 0.890614 4.89593 1.34897L5.82404 6.27151L8.20827 0.495947H10.5274L6.94986 9.02735ZM11.8531 9.02735H9.60026L11.4553 0.495947H13.7081L11.8531 9.02735ZM16.623 2.85947C16.6893 2.39998 17.0871 2.13724 17.5511 2.13724C18.2803 2.07128 19.0747 2.20321 19.7376 2.53077L20.1354 0.693922C19.4725 0.43119 18.7432 0.299255 18.0815 0.299255C15.8949 0.299255 14.3039 1.48098 14.3039 3.12107C14.3039 4.36876 15.4309 5.02389 16.2264 5.41855C17.0871 5.81208 17.4185 6.07481 17.3522 6.46834C17.3522 7.05864 16.6893 7.32137 16.0275 7.32137C15.232 7.32137 14.4365 7.12461 13.7084 6.79591L13.3107 8.63389C14.1062 8.96146 14.9668 9.09339 15.7623 9.09339C18.214 9.15822 19.7376 7.97763 19.7376 6.20561C19.7376 3.97409 16.623 3.8433 16.623 2.85947V2.85947ZM27.622 9.02735L25.8332 0.495947H23.9119C23.5141 0.495947 23.1163 0.758679 22.9838 1.15221L19.6714 9.02735H21.9905L22.4534 7.78079H25.3029L25.568 9.02735H27.622ZM24.243 2.79353L24.9048 6.00887H23.0497L24.243 2.79353Z" fill="#777777"/>
</svg>
