<svg width="226" height="181" viewBox="0 0 226 181" fill="none" xmlns="http://www.w3.org/2000/svg">
<path opacity="0.35" fill-rule="evenodd" clip-rule="evenodd" d="M35.111 180.74C12.4241 154.733 -0.0520669 121.376 0.00016333 86.8649C0.00016333 83.4508 0.129488 80.0626 0.362267 76.7002L90.8099 83.1663C90.6935 84.5371 90.6418 85.9208 90.6418 87.3175C90.6558 99.8371 95.1673 111.935 103.354 121.407L35.111 180.74Z" fill="#007763"/>
<path opacity="0.35" fill-rule="evenodd" clip-rule="evenodd" d="M159.971 21.6741C176.102 25.8429 190.115 35.8437 199.3 49.7435C208.486 63.6432 212.193 80.4549 209.704 96.9288C207.216 113.403 198.708 128.369 185.826 138.935C172.944 149.501 156.602 154.916 139.96 154.133C123.317 153.351 107.556 146.427 95.7218 134.699C83.8879 122.971 76.8219 107.272 75.8897 90.6376C74.9575 74.0028 80.2253 57.6131 90.6748 44.6365C101.124 31.6599 116.013 23.0178 132.464 20.3809L134.883 35.5244C122.084 37.5697 110.498 44.2892 102.367 54.383C94.2364 64.4768 90.1382 77.2275 90.8653 90.1684C91.5925 103.109 97.0934 115.321 106.304 124.44C115.514 133.559 127.78 138.939 140.727 139.537C153.675 140.136 166.384 135.911 176.397 127.68C186.409 119.45 193.013 107.798 194.931 94.9793C196.849 82.1606 193.945 69.0862 186.78 58.2853C179.615 47.4844 168.699 39.7246 156.143 36.5073L159.971 21.6741Z" fill="#007763"/>
<path opacity="0.6" fill-rule="evenodd" clip-rule="evenodd" d="M209.501 64.5059C214.326 78.8335 214.399 94.3359 209.708 108.708L193.051 103.264C196.463 92.4819 196.318 80.8889 192.637 70.196L209.501 64.5059Z" fill="#007763"/>
<path opacity="0.6" fill-rule="evenodd" clip-rule="evenodd" d="M156.673 168.545C142.732 170.869 128.428 169.568 115.134 164.77C101.841 159.971 90.004 151.834 80.7615 141.142L103.354 121.407C108.269 127.14 114.368 131.739 121.23 134.889C128.093 138.039 135.556 139.665 143.107 139.655C146.01 139.655 148.908 139.417 151.772 138.943L156.673 168.545ZM90.8486 83.2963L60.8848 82.0031C61.9304 64.9791 68.2593 48.705 78.9898 35.4473L102.358 54.2636C95.6441 62.5371 91.6271 72.6697 90.8486 83.2963Z" fill="#007763"/>
<path opacity="0.35" fill-rule="evenodd" clip-rule="evenodd" d="M225.822 87.2929C225.813 106.852 218.877 125.775 206.246 140.708C193.614 155.641 176.102 165.617 156.816 168.869L151.824 138.97C164.046 136.905 175.142 130.576 183.139 121.106C191.137 111.635 195.52 99.6369 195.509 87.2412L225.822 87.2929Z" fill="#007763"/>
<path opacity="0.35" fill-rule="evenodd" clip-rule="evenodd" d="M72.3682 30.2096C84.0425 15.7405 99.8711 5.19714 117.721 0L128.52 36.9343C118.235 39.9064 109.106 45.9533 102.358 54.2634L72.3682 30.2096Z" fill="#007763"/>
<path opacity="0.6" fill-rule="evenodd" clip-rule="evenodd" d="M143.108 11.1602C146.72 11.1652 150.328 11.4201 153.906 11.9232L150.569 35.408C143.185 34.3525 135.661 34.877 128.494 36.9469L121.86 14.1734C128.764 12.1674 135.918 11.1528 143.108 11.1602Z" fill="#007763"/>
<path opacity="0.35" fill-rule="evenodd" clip-rule="evenodd" d="M76.1582 109.859L93.3968 103.937C96.8583 114.246 103.438 123.226 112.226 129.633L101.544 144.401C89.7168 135.786 80.8484 123.72 76.1582 109.859Z" fill="#007763"/>
<path d="M154.798 137.05C182.284 130.599 199.335 103.086 192.884 75.6001C186.432 48.1139 158.919 31.0622 131.433 37.5141C103.947 43.966 86.8953 71.4783 93.3472 98.9645C99.7991 126.451 127.311 143.502 154.798 137.05Z" fill="#FDD302"/>
<path d="M145.612 119.167C163.213 117.785 176.362 102.396 174.979 84.7946C173.597 67.1932 158.208 54.0449 140.607 55.427C123.005 56.8092 109.857 72.1985 111.239 89.7999C112.621 107.401 128.01 120.55 145.612 119.167Z" fill="#FDD302"/>
<path fill-rule="evenodd" clip-rule="evenodd" d="M141.011 60.5851C126.258 61.7436 115.237 74.6427 116.396 89.396C117.554 104.149 130.453 115.17 145.207 114.012C159.96 112.853 170.981 99.954 169.822 85.2006C168.664 70.4473 155.765 59.4266 141.011 60.5851ZM106.082 90.2059C104.476 69.7564 119.752 51.8769 140.202 50.2711C160.651 48.6653 178.531 63.9412 180.136 84.3907C181.742 104.84 166.466 122.72 146.017 124.326C125.567 125.931 107.688 110.656 106.082 90.2059Z" fill="white"/>
<path fill-rule="evenodd" clip-rule="evenodd" d="M124.679 48.5344C124.679 46.9052 125.326 45.3428 126.478 44.1908C127.63 43.0388 129.193 42.3916 130.822 42.3916C132.451 42.3916 134.014 43.0388 135.166 44.1908C136.318 45.3428 136.965 46.9052 136.965 48.5344V125.92C136.965 127.55 136.318 129.112 135.166 130.264C134.014 131.416 132.451 132.063 130.822 132.063C129.193 132.063 127.63 131.416 126.478 130.264C125.326 129.112 124.679 127.55 124.679 125.92V48.5344Z" fill="#FDD302"/>
<path d="M149.25 55.3242H136.965V119.132H149.25V55.3242Z" fill="white"/>
</svg>
