<svg width="45" height="36" viewBox="0 0 45 36" fill="none" xmlns="http://www.w3.org/2000/svg">
<path d="M39.5018 36C40.9485 36 42.3358 35.4253 43.3588 34.4024C44.3817 33.3795 44.9564 31.9921 44.9564 30.5455V5.45455C44.9564 4.00791 44.3817 2.62053 43.3588 1.5976C42.3358 0.574674 40.9485 0 39.5018 0H5.45455C4.00791 0 2.62053 0.574674 1.5976 1.5976C0.574674 2.62053 0 4.00791 0 5.45455V30.5455C0 31.9921 0.574674 33.3795 1.5976 34.4024C2.62053 35.4253 4.00791 36 5.45455 36H39.5018ZM39.5018 33.8182H27.6982L21.3873 25.7073L32.9455 16.4345L42.7636 30.4473V30.5455C42.7636 31.4116 42.4203 32.2423 41.8089 32.8558C41.1975 33.4692 40.3679 33.8153 39.5018 33.8182ZM5.45455 2.18182H39.5018C40.3698 2.18182 41.2022 2.52662 41.816 3.14038C42.4297 3.75413 42.7745 4.58656 42.7745 5.45455V26.6291L34.0473 14.2145C33.9615 14.0924 33.8517 13.9891 33.7244 13.9111C33.5972 13.8331 33.4553 13.7821 33.3076 13.7611C33.1598 13.7402 33.0093 13.7497 32.8654 13.7893C32.7215 13.8288 32.5872 13.8974 32.4709 13.9909L20.0455 24L15.4636 18.1036C15.368 17.9815 15.2474 17.8812 15.11 17.8093C14.9725 17.7375 14.8213 17.6958 14.6664 17.687C14.5116 17.6783 14.3566 17.7026 14.2119 17.7585C14.0672 17.8143 13.9361 17.9004 13.8273 18.0109L2.18182 29.8309V5.45455C2.18182 4.58656 2.52662 3.75413 3.14038 3.14038C3.75413 2.52662 4.58657 2.18182 5.45455 2.18182ZM2.72727 32.3345L14.5091 20.4273L24.9273 33.8182H5.45455C4.91976 33.8145 4.39403 33.6798 3.92334 33.426C3.45265 33.1721 3.05135 32.8067 2.75455 32.3618L2.72727 32.3345Z" fill="black"/>
<path d="M14.8962 13.8599C15.8337 13.8599 16.7502 13.5819 17.5297 13.0611C18.3091 12.5402 18.9167 11.7999 19.2754 10.9338C19.6342 10.0677 19.7281 9.11463 19.5452 8.19516C19.3623 7.27569 18.9108 6.4311 18.2479 5.7682C17.585 5.1053 16.7404 4.65386 15.821 4.47096C14.9015 4.28807 13.9485 4.38194 13.0823 4.7407C12.2162 5.09946 11.4759 5.70699 10.9551 6.48648C10.4342 7.26597 10.1562 8.1824 10.1562 9.11989C10.1577 10.3766 10.6575 11.5814 11.5462 12.47C12.4348 13.3586 13.6396 13.8584 14.8962 13.8599ZM14.8962 6.54534C15.4022 6.54534 15.8968 6.69537 16.3175 6.97647C16.7382 7.25757 17.0661 7.6571 17.2597 8.12455C17.4533 8.59199 17.504 9.10636 17.4053 9.6026C17.3066 10.0988 17.0629 10.5547 16.7052 10.9124C16.3474 11.2702 15.8916 11.5138 15.3953 11.6125C14.8991 11.7113 14.3847 11.6606 13.9173 11.467C13.4498 11.2733 13.0503 10.9455 12.7692 10.5248C12.4881 10.1041 12.3381 9.60948 12.3381 9.10352C12.3381 8.42505 12.6076 7.77437 13.0873 7.29461C13.5671 6.81486 14.2178 6.54534 14.8962 6.54534Z" fill="black"/>
</svg>
