<svg width="25" height="35" viewBox="0 0 25 35" fill="none" xmlns="http://www.w3.org/2000/svg">
<path d="M3.77874 31.9397H6.01762V33.729C6.01762 33.8736 6.13741 33.9909 6.28515 33.9909C6.43289 33.9909 6.55268 33.8736 6.55268 33.729V31.9397H7.60506V33.7381C7.60506 33.8827 7.72485 34 7.87259 34C8.02034 34 8.14012 33.8827 8.14012 33.7381V31.9397H10.7371C12.2122 31.9397 13.4122 30.7648 13.4122 29.3207C13.4122 27.8767 12.2122 26.7019 10.7371 26.7019H8.14012V24.3572H17.4548V33.7381C17.4548 33.8827 17.5746 34 17.7224 34C17.8701 34 17.9899 33.8827 17.9899 33.7381V24.0954C17.9899 23.9507 17.8701 23.8334 17.7224 23.8334H16.3449V23.1989C16.3449 22.493 15.7583 21.9187 15.0371 21.9187H14.9364C16.0543 20.4373 16.6122 18.5469 16.6727 16.0456C17.8729 16.541 19.6586 17.4856 20.7697 19.032C22.6068 21.5888 23.4572 33.6255 23.4655 33.7467C23.4752 33.8851 23.5927 33.991 23.7322 33.991C23.7383 33.991 23.7444 33.9908 23.7505 33.9904C23.8979 33.9806 24.0093 33.8558 23.9994 33.7114C23.9647 33.2102 23.1299 21.4064 21.2073 18.7307C19.8645 16.8617 17.6267 15.8289 16.4123 15.3796C15.9277 15.2002 15.6021 14.7368 15.6021 14.2264V13.1223C16.1749 12.7206 16.673 12.2239 16.9813 11.7444C17.4235 11.0564 17.7671 9.80354 17.9242 8.3038C18.0916 6.48108 17.9847 3.98002 16.5241 2.41573C15.6471 1.47627 14.3933 1 12.7975 1C11.2018 1 9.94794 1.47627 9.07078 2.41566C7.61028 3.97995 7.5034 6.48101 7.67088 8.30367C7.67101 8.30479 7.67114 8.30583 7.67121 8.30688C7.82785 9.80321 8.17142 11.056 8.61371 11.7442C8.92197 12.2237 9.42004 12.7203 9.99289 13.1221V14.1515C9.99289 14.6945 9.63574 15.1686 9.10416 15.3312C7.74518 15.7467 5.89141 16.552 4.77736 18.0286C3.66825 19.4985 2.16154 24.5496 1.09289 28.528C0.871984 29.3503 1.04935 30.2079 1.57939 30.881C2.1093 31.5538 2.91088 31.9397 3.77874 31.9397ZM15.8099 23.1989V23.8334H9.78515V23.1989C9.78515 22.7817 10.1318 22.4424 10.5579 22.4424H15.0373C15.4632 22.4424 15.8099 22.7818 15.8099 23.1989ZM9.06664 11.4653C8.67264 10.8524 8.35013 9.65242 8.20373 8.25516C8.04608 6.53752 8.13718 4.1921 9.46579 2.7691C10.2373 1.94279 11.3582 1.52381 12.7975 1.52381C14.2368 1.52381 15.3578 1.94273 16.1292 2.76904C17.4583 4.19249 17.5491 6.53896 17.3915 8.25352C17.2452 9.6517 16.9225 10.8523 16.5284 11.4653C16.2414 11.9117 15.7388 12.3991 15.184 12.7692C14.6437 13.1296 13.791 13.5592 12.7975 13.5592C11.804 13.5592 10.9513 13.1295 10.4109 12.7692C9.85611 12.3991 9.35356 11.9116 9.06664 11.4653ZM10.5279 14.1515V13.4562C11.1156 13.7814 11.9013 14.083 12.7975 14.083C13.6937 14.083 14.4794 13.7815 15.0671 13.4562V14.2262C15.0671 14.924 15.4959 15.5594 16.1419 15.8356C16.1063 18.5066 15.5039 20.4481 14.2568 21.9185H11.3383C10.0796 20.4345 9.47803 18.4701 9.45268 15.7606C10.1029 15.4818 10.5279 14.8583 10.5279 14.1515ZM1.61029 28.6612C3.1041 23.1002 4.38168 19.4346 5.20774 18.3399C6.18081 17.0502 7.8332 16.3117 8.9201 15.9422C8.96759 18.4949 9.52538 20.417 10.6586 21.9185H10.5578C9.83672 21.9185 9.25003 22.4928 9.25003 23.1988V23.8333H7.87253C7.72478 23.8333 7.605 23.9506 7.605 24.0952V26.7018H6.55268V21.9714C6.55268 21.8267 6.43289 21.7095 6.28515 21.7095C6.13741 21.7095 6.01762 21.8267 6.01762 21.9714V26.7018H4.19829C4.05055 26.7018 3.93077 26.8191 3.93077 26.9637C3.93077 27.1084 4.05055 27.2256 4.19829 27.2256H10.7372C11.9172 27.2256 12.8772 28.1655 12.8772 29.3207C12.8772 30.4759 11.9172 31.4158 10.7372 31.4158H3.77874C3.07809 31.4158 2.43094 31.1043 2.00316 30.5612C1.57518 30.0177 1.43192 29.3252 1.61029 28.6612ZM19.3099 21.7095C19.4576 21.7095 19.5774 21.8268 19.5774 21.9714V33.729C19.5774 33.8736 19.4576 33.9909 19.3099 33.9909C19.1621 33.9909 19.0424 33.8736 19.0424 33.729V21.9714C19.0424 21.8268 19.1621 21.7095 19.3099 21.7095Z" fill="#007763" stroke="#007763" stroke-width="0.5"/>
</svg>
