<svg width="146" height="146" viewBox="0 0 146 146" fill="none" xmlns="http://www.w3.org/2000/svg">
<path fill-rule="evenodd" clip-rule="evenodd" d="M40.5556 32.4444C40.5556 23.8396 43.9738 15.5873 50.0583 9.50276C56.1428 3.41824 64.3952 0 73 0C81.6048 0 89.8572 3.41824 95.9417 9.50276C102.026 15.5873 105.444 23.8396 105.444 32.4444C105.444 41.0492 102.026 49.3016 95.9417 55.3861C89.8572 61.4706 81.6048 64.8889 73 64.8889C64.3952 64.8889 56.1428 61.4706 50.0583 55.3861C43.9738 49.3016 40.5556 41.0492 40.5556 32.4444ZM40.5556 81.1111C29.7996 81.1111 19.4841 85.3839 11.8784 92.9896C4.2728 100.595 0 110.911 0 121.667C0 128.12 2.56368 134.31 7.12707 138.873C11.6905 143.436 17.8797 146 24.3333 146H121.667C128.12 146 134.31 143.436 138.873 138.873C143.436 134.31 146 128.12 146 121.667C146 110.911 141.727 100.595 134.122 92.9896C126.516 85.3839 116.2 81.1111 105.444 81.1111H40.5556Z" fill="#697077"/>
</svg>
