<svg width="33" height="33" viewBox="0 0 33 33" fill="currentColor" xmlns="http://www.w3.org/2000/svg">
<path d="M16.4999 15.7826C18.0607 15.7826 19.5864 15.3198 20.8841 14.4527C22.1818 13.5856 23.1933 12.3531 23.7906 10.9112C24.3878 9.46923 24.5441 7.88255 24.2396 6.35179C23.9351 4.82103 23.1836 3.41493 22.0799 2.31131C20.9763 1.20769 19.5702 0.45612 18.0395 0.151633C16.5087 -0.152855 14.922 0.00341921 13.4801 0.600693C12.0381 1.19797 10.8057 2.20942 9.93857 3.50713C9.07146 4.80485 8.60864 6.33055 8.60864 7.89131C8.61244 9.98305 9.44506 11.988 10.9241 13.4671C12.4032 14.9462 14.4082 15.7788 16.4999 15.7826ZM16.4999 14.3478C15.1674 14.3462 13.8681 13.9313 12.7811 13.1604C11.6942 12.3895 10.873 11.3005 10.4308 10.0435C16.2847 9.78522 18.5947 7.50392 19.4986 5.73913C20.3412 6.9895 21.5131 7.9826 22.8847 8.6087C22.7119 10.1828 21.9654 11.6382 20.7876 12.6968C19.6099 13.7554 18.0835 14.3432 16.4999 14.3478ZM16.4999 1.43479C16.9194 1.43363 17.3378 1.47692 17.7482 1.56392L18.1356 1.66435C18.3984 1.73047 18.6571 1.81191 18.9104 1.90826C19.0539 1.90826 19.1973 2.05174 19.3408 2.12348C19.5587 2.22406 19.7696 2.3391 19.9721 2.46783C20.1117 2.55524 20.2459 2.65107 20.3739 2.75479L20.9047 3.19957C21.0339 3.31435 21.1486 3.44348 21.2634 3.55826L21.6939 4.08913C21.7943 4.21826 21.8804 4.36174 21.9808 4.51957C22.0813 4.67739 22.196 4.90696 22.2965 5.10783C22.38 5.26003 22.4519 5.4183 22.5117 5.58131C22.5978 5.79653 22.6552 6.02609 22.7269 6.25565C22.7986 6.48522 22.813 6.58566 22.8417 6.75783C22.8487 6.815 22.8487 6.87283 22.8417 6.93C22.162 6.56557 21.5643 6.06559 21.0855 5.46096C20.6068 4.85634 20.2571 4.15992 20.0582 3.41479C20.0115 3.24679 19.9063 3.10099 19.7617 3.00366C19.617 2.90633 19.4423 2.86387 19.2691 2.88392C19.0966 2.90192 18.9373 2.98431 18.8229 3.11463C18.7086 3.24496 18.6476 3.41363 18.6521 3.58696C18.6521 3.77348 18.4656 8.32174 10.1152 8.59435C10.0771 8.36167 10.0531 8.12689 10.0434 7.89131C10.0472 6.1801 10.7287 4.54006 11.9387 3.33004C13.1487 2.12003 14.7887 1.43858 16.4999 1.43479Z" fill="white"/>
<path d="M32.2826 31.5652H30.8478C30.9561 31.4424 31.0567 31.313 31.1491 31.1778C31.4731 30.6226 31.6438 29.9913 31.6438 29.3484C31.6438 28.7056 31.4731 28.0743 31.1491 27.5191L26.3713 18.7956C26.103 18.3162 25.7115 17.9171 25.2373 17.6396C24.763 17.3622 24.2233 17.2164 23.6739 17.2174H21.5217C21.2102 17.2173 20.9023 17.2853 20.6198 17.4166C20.3372 17.548 20.0868 17.7395 19.8861 17.9778C19.4607 18.4555 18.9391 18.8377 18.3556 19.0995C17.772 19.3613 17.1396 19.4966 16.5 19.4966C15.8604 19.4966 15.228 19.3613 14.6444 19.0995C14.0609 18.8377 13.5393 18.4555 13.1139 17.9778C12.9132 17.7395 12.6628 17.548 12.3802 17.4166C12.0977 17.2853 11.7898 17.2173 11.4783 17.2174H9.32609C8.77666 17.2164 8.23695 17.3622 7.76273 17.6396C7.28852 17.9171 6.89702 18.3162 6.62869 18.7956L1.79348 27.5191C1.46952 28.0743 1.29882 28.7056 1.29882 29.3484C1.29882 29.9913 1.46952 30.6226 1.79348 31.1778C1.90436 31.3147 2.02418 31.4441 2.15217 31.5652H0.717391C0.527127 31.5652 0.344656 31.6408 0.210119 31.7753C0.0755822 31.9098 0 32.0923 0 32.2826C0 32.4728 0.0755822 32.6553 0.210119 32.7898C0.344656 32.9244 0.527127 33 0.717391 33H32.2826C32.4729 33 32.6553 32.9244 32.7899 32.7898C32.9244 32.6553 33 32.4728 33 32.2826C33 32.0923 32.9244 31.9098 32.7899 31.7753C32.6553 31.6408 32.4729 31.5652 32.2826 31.5652ZM20.173 31.5652C20.2808 30.7307 20.7032 29.9689 21.3539 29.4355C22.0046 28.9022 22.8345 28.6375 23.6739 28.6956H26.5435C26.7337 28.6956 26.9162 28.62 27.0507 28.4855C27.1853 28.351 27.2609 28.1685 27.2609 27.9782C27.2609 27.788 27.1853 27.6055 27.0507 27.4709C26.9162 27.3364 26.7337 27.2608 26.5435 27.2608H23.6739C22.4512 27.2001 21.2522 27.6139 20.3272 28.4159C19.4022 29.2179 18.8227 30.3462 18.7096 31.5652H14.2904C14.1773 30.3462 13.5977 29.2179 12.6728 28.4159C11.7478 27.6139 10.5488 27.2001 9.32609 27.2608H6.45652C6.26626 27.2608 6.08379 27.3364 5.94925 27.4709C5.81471 27.6055 5.73913 27.788 5.73913 27.9782C5.73913 28.1685 5.81471 28.351 5.94925 28.4855C6.08379 28.62 6.26626 28.6956 6.45652 28.6956H9.32609C10.1686 28.6301 11.004 28.8917 11.6586 29.4261C12.3133 29.9605 12.7368 30.7266 12.8413 31.5652H5.02174C4.62862 31.5639 4.2426 31.4604 3.90157 31.2648C3.56054 31.0693 3.27622 30.7884 3.07652 30.4498C2.87683 30.1112 2.76862 29.7265 2.76252 29.3334C2.75642 28.9403 2.85264 28.5524 3.04174 28.2078L7.8913 19.4987C8.03269 19.242 8.24045 19.028 8.49285 18.879C8.74525 18.7301 9.03303 18.6518 9.32609 18.6521H11.4783C11.5828 18.651 11.6862 18.6736 11.7807 18.7184C11.8751 18.7631 11.9582 18.8288 12.0235 18.9104C12.5836 19.5455 13.2724 20.0542 14.0443 20.4026C14.8161 20.751 15.6532 20.9312 16.5 20.9312C17.3468 20.9312 18.1839 20.751 18.9557 20.4026C19.7276 20.0542 20.4164 19.5455 20.9765 18.9104C21.0418 18.8288 21.1249 18.7631 21.2193 18.7184C21.3138 18.6736 21.4172 18.651 21.5217 18.6521H23.6739C23.967 18.6518 24.2547 18.7301 24.5071 18.879C24.7595 19.028 24.9673 19.242 25.1087 19.4987L29.9583 28.2078C30.1474 28.5524 30.2436 28.9403 30.2375 29.3334C30.2314 29.7265 30.1232 30.1112 29.9235 30.4498C29.7238 30.7884 29.4395 31.0693 29.0984 31.2648C28.7574 31.4604 28.3714 31.5639 27.9783 31.5652H20.173Z" fill="white"/>
</svg>
