<svg width="46" height="43" viewBox="0 0 46 43" fill="none" xmlns="http://www.w3.org/2000/svg">
<path d="M44.1457 22.6726L40.2366 16.418H5.83636L1.92725 22.6726H44.1457Z" fill="#F29C1F"/>
<path d="M5.83618 30.9833V4.6906C5.83618 3.83059 6.53982 3.12695 7.39983 3.12695H38.6728C39.5328 3.12695 40.2364 3.83059 40.2364 4.6906V30.9833H5.83618Z" fill="#ECF0F1"/>
<path d="M8.96331 0H37.109C37.9721 0 38.6726 0.700514 38.6726 1.56365V3.1273H7.39966V1.56365C7.39966 0.700514 8.10017 0 8.96331 0Z" fill="#D1D4D1"/>
<path d="M45.7093 24.2365V39.873C45.7093 41.6 44.3091 43.0003 42.582 43.0003H3.49082C1.76377 43.0003 0.363525 41.6 0.363525 39.873V24.2365C0.363525 23.3726 1.06326 22.6729 1.92717 22.6729H9.19891C10.023 22.6729 10.786 23.1052 11.2098 23.812L13.6233 27.8345C14.6123 29.4825 16.394 30.4919 18.3158 30.4919H27.7547C29.6772 30.4919 31.4582 29.4833 32.4472 27.8345L34.8607 23.812C35.2845 23.1052 36.0483 22.6729 36.8716 22.6729H44.1433C45.0072 22.6729 45.707 23.3726 45.707 24.2365H45.7093Z" fill="#F0C419"/>
<path d="M34.764 33.6182H11.3093C10.4457 33.6182 9.74561 34.3182 9.74561 35.1818V38.3091C9.74561 39.1727 10.4457 39.8728 11.3093 39.8728H34.764C35.6275 39.8728 36.3276 39.1727 36.3276 38.3091V35.1818C36.3276 34.3182 35.6275 33.6182 34.764 33.6182Z" fill="#F9EAB0"/>
<path d="M29.0586 16.4184H26.9454V24.2366C26.9454 25.1006 26.2456 25.8003 25.3817 25.8003H20.6908C19.8269 25.8003 19.1271 25.1006 19.1271 24.2366V16.4184H17.0139C15.5174 16.4184 14.7685 14.6093 15.8263 13.5515L21.8487 7.52907C22.5046 6.87312 23.5679 6.87312 24.2238 7.52907L30.2462 13.5515C31.304 14.6093 30.555 16.4184 29.0586 16.4184Z" fill="#007763"/>
</svg>
